<svg xmlns="http://www.w3.org/2000/svg" xmlns:xlink="http://www.w3.org/1999/xlink" width="500" zoomAndPan="magnify" viewBox="0 0 375 374.999991" height="500" preserveAspectRatio="xMidYMid meet" version="1.0"><defs><clipPath id="60e14bf21c"><path d="M 20.398438 20.398438 L 354.601562 20.398438 L 354.601562 354.601562 L 20.398438 354.601562 Z M 20.398438 20.398438 " clip-rule="nonzero"/></clipPath><clipPath id="cd0ebdec81"><path d="M 187.5 20.398438 C 95.214844 20.398438 20.398438 95.214844 20.398438 187.5 C 20.398438 279.785156 95.214844 354.601562 187.5 354.601562 C 279.785156 354.601562 354.601562 279.785156 354.601562 187.5 C 354.601562 95.214844 279.785156 20.398438 187.5 20.398438 " clip-rule="nonzero"/></clipPath><clipPath id="7595c70e9c"><path d="M 69.320312 95.320312 L 305.570312 95.320312 L 305.570312 279.820312 L 69.320312 279.820312 Z M 69.320312 95.320312 " clip-rule="nonzero"/></clipPath></defs><g clip-path="url(#60e14bf21c)"><g clip-path="url(#cd0ebdec81)"><path fill="#cfcfcf" d="M 20.398438 20.398438 L 354.601562 20.398438 L 354.601562 354.601562 L 20.398438 354.601562 Z M 20.398438 20.398438 " fill-opacity="1" fill-rule="nonzero"/></g></g><g clip-path="url(#7595c70e9c)"><path fill="#505050" d="M 282.507812 127.496094 L 245.867188 127.496094 C 245.671875 126.820312 245.289062 126.148438 245.003906 125.574219 C 242.507812 120.964844 240.589844 115.96875 239.34375 110.878906 C 238.191406 106.269531 237.230469 100.988281 233.492188 98.105469 C 230.421875 95.800781 226.199219 95.703125 222.363281 95.703125 C 209.414062 95.703125 196.460938 95.703125 183.417969 95.703125 C 173.152344 95.703125 162.792969 95.703125 152.527344 95.703125 C 150.417969 95.703125 147.730469 95.320312 145.71875 95.800781 C 143.988281 96.28125 142.359375 97.527344 141.113281 98.777344 C 138.425781 101.371094 136.699219 104.925781 135.546875 108.382812 C 133.726562 113.953125 132.863281 120.003906 129.984375 125.09375 C 129.601562 125.863281 129.121094 126.628906 128.832031 127.398438 L 92.285156 127.398438 C 79.621094 127.398438 69.453125 137.675781 69.453125 150.257812 L 69.453125 256.960938 C 69.453125 269.640625 79.71875 279.820312 92.285156 279.820312 L 282.605469 279.820312 C 295.269531 279.820312 305.4375 269.542969 305.4375 256.960938 L 305.4375 150.449219 C 305.339844 137.769531 295.078125 127.496094 282.507812 127.496094 Z M 187.347656 262.722656 C 154.828125 262.722656 128.449219 236.3125 128.449219 203.753906 C 128.449219 171.195312 154.828125 144.78125 187.347656 144.78125 C 219.867188 144.78125 246.25 171.195312 246.25 203.753906 C 246.25 236.3125 219.867188 262.722656 187.347656 262.722656 Z M 277.617188 163.800781 C 273.109375 163.800781 269.464844 160.148438 269.464844 155.636719 C 269.464844 151.121094 273.109375 147.472656 277.617188 147.472656 C 282.125 147.472656 285.769531 151.121094 285.769531 155.636719 C 285.769531 160.148438 282.125 163.800781 277.617188 163.800781 Z M 277.617188 163.800781 " fill-opacity="1" fill-rule="nonzero"/></g><path fill="#505050" d="M 223.128906 203.753906 C 223.128906 204.925781 223.074219 206.097656 222.957031 207.265625 C 222.84375 208.433594 222.671875 209.589844 222.441406 210.742188 C 222.214844 211.894531 221.929688 213.03125 221.589844 214.152344 C 221.25 215.273438 220.855469 216.378906 220.40625 217.460938 C 219.957031 218.546875 219.457031 219.605469 218.90625 220.640625 C 218.351562 221.675781 217.75 222.679688 217.101562 223.65625 C 216.449219 224.632812 215.753906 225.574219 215.007812 226.480469 C 214.265625 227.386719 213.480469 228.253906 212.652344 229.085938 C 211.820312 229.914062 210.953125 230.703125 210.046875 231.445312 C 209.144531 232.191406 208.203125 232.886719 207.226562 233.539062 C 206.253906 234.191406 205.25 234.792969 204.214844 235.347656 C 203.183594 235.902344 202.125 236.402344 201.042969 236.851562 C 199.960938 237.300781 198.859375 237.695312 197.734375 238.035156 C 196.613281 238.375 195.480469 238.660156 194.328125 238.890625 C 193.179688 239.117188 192.023438 239.289062 190.855469 239.40625 C 189.691406 239.519531 188.519531 239.578125 187.347656 239.578125 C 186.175781 239.578125 185.007812 239.519531 183.84375 239.40625 C 182.675781 239.289062 181.519531 239.117188 180.367188 238.890625 C 179.21875 238.660156 178.085938 238.375 176.960938 238.035156 C 175.839844 237.695312 174.738281 237.300781 173.65625 236.851562 C 172.574219 236.402344 171.515625 235.902344 170.480469 235.347656 C 169.449219 234.792969 168.445312 234.191406 167.46875 233.539062 C 166.496094 232.886719 165.554688 232.191406 164.648438 231.445312 C 163.746094 230.703125 162.878906 229.914062 162.046875 229.085938 C 161.21875 228.253906 160.433594 227.386719 159.691406 226.480469 C 158.945312 225.574219 158.25 224.632812 157.597656 223.65625 C 156.949219 222.679688 156.347656 221.675781 155.792969 220.640625 C 155.242188 219.605469 154.742188 218.546875 154.292969 217.460938 C 153.84375 216.378906 153.449219 215.273438 153.109375 214.152344 C 152.769531 213.03125 152.484375 211.894531 152.257812 210.742188 C 152.027344 209.589844 151.855469 208.433594 151.742188 207.265625 C 151.625 206.097656 151.570312 204.925781 151.570312 203.753906 C 151.570312 202.578125 151.625 201.410156 151.742188 200.242188 C 151.855469 199.074219 152.027344 197.914062 152.257812 196.765625 C 152.484375 195.613281 152.769531 194.476562 153.109375 193.355469 C 153.449219 192.230469 153.84375 191.128906 154.292969 190.042969 C 154.742188 188.960938 155.242188 187.902344 155.792969 186.867188 C 156.347656 185.832031 156.949219 184.824219 157.597656 183.851562 C 158.25 182.875 158.945312 181.933594 159.691406 181.027344 C 160.433594 180.121094 161.21875 179.25 162.046875 178.421875 C 162.878906 177.59375 163.746094 176.804688 164.648438 176.0625 C 165.554688 175.316406 166.496094 174.617188 167.46875 173.964844 C 168.445312 173.316406 169.449219 172.710938 170.480469 172.160156 C 171.515625 171.605469 172.574219 171.105469 173.65625 170.65625 C 174.738281 170.207031 175.839844 169.8125 176.960938 169.472656 C 178.085938 169.132812 179.21875 168.847656 180.367188 168.617188 C 181.519531 168.386719 182.675781 168.214844 183.84375 168.101562 C 185.007812 167.988281 186.175781 167.929688 187.347656 167.929688 C 188.519531 167.929688 189.691406 167.988281 190.855469 168.101562 C 192.023438 168.214844 193.179688 168.386719 194.328125 168.617188 C 195.480469 168.847656 196.613281 169.132812 197.734375 169.472656 C 198.859375 169.8125 199.960938 170.207031 201.042969 170.65625 C 202.125 171.105469 203.183594 171.605469 204.214844 172.160156 C 205.25 172.710938 206.253906 173.316406 207.226562 173.964844 C 208.203125 174.617188 209.144531 175.316406 210.046875 176.0625 C 210.953125 176.804688 211.820312 177.59375 212.652344 178.421875 C 213.480469 179.25 214.265625 180.121094 215.007812 181.027344 C 215.753906 181.933594 216.449219 182.875 217.101562 183.851562 C 217.75 184.824219 218.351562 185.832031 218.90625 186.867188 C 219.457031 187.902344 219.957031 188.960938 220.40625 190.042969 C 220.855469 191.128906 221.25 192.230469 221.589844 193.355469 C 221.929688 194.476562 222.214844 195.613281 222.441406 196.765625 C 222.671875 197.914062 222.84375 199.074219 222.957031 200.242188 C 223.074219 201.410156 223.128906 202.578125 223.128906 203.753906 Z M 223.128906 203.753906 " fill-opacity="1" fill-rule="nonzero"/></svg>