<svg xmlns="http://www.w3.org/2000/svg" xmlns:xlink="http://www.w3.org/1999/xlink" width="500" zoomAndPan="magnify" viewBox="0 0 375 374.999991" height="500" preserveAspectRatio="xMidYMid meet" version="1.0"><defs><clipPath id="036c0260a8"><path d="M 20.398438 20.398438 L 354.601562 20.398438 L 354.601562 354.601562 L 20.398438 354.601562 Z M 20.398438 20.398438 " clip-rule="nonzero"/></clipPath><clipPath id="d15256ecb9"><path d="M 187.5 20.398438 C 95.214844 20.398438 20.398438 95.214844 20.398438 187.5 C 20.398438 279.785156 95.214844 354.601562 187.5 354.601562 C 279.785156 354.601562 354.601562 279.785156 354.601562 187.5 C 354.601562 95.214844 279.785156 20.398438 187.5 20.398438 " clip-rule="nonzero"/></clipPath><clipPath id="9d652f4dad"><path d="M 71.496094 82.082031 L 303 82.082031 L 303 292.832031 L 71.496094 292.832031 Z M 71.496094 82.082031 " clip-rule="nonzero"/></clipPath></defs><g clip-path="url(#036c0260a8)"><g clip-path="url(#d15256ecb9)"><path fill="#cfcfcf" d="M 20.398438 20.398438 L 354.601562 20.398438 L 354.601562 354.601562 L 20.398438 354.601562 Z M 20.398438 20.398438 " fill-opacity="1" fill-rule="nonzero"/></g></g><g clip-path="url(#9d652f4dad)"><path fill="#505050" d="M 193.441406 228.128906 L 128.59375 228.128906 C 126.359375 228.128906 124.53125 229.957031 124.53125 232.195312 C 124.53125 234.410156 126.359375 236.238281 128.59375 236.238281 L 193.441406 236.238281 C 195.679688 236.238281 197.503906 234.410156 197.503906 232.195312 C 197.503906 229.957031 195.679688 228.128906 193.441406 228.128906 Z M 193.441406 211.890625 L 128.59375 211.890625 C 126.359375 211.890625 124.53125 213.71875 124.53125 215.953125 C 124.53125 218.191406 126.359375 220.019531 128.59375 220.019531 L 193.441406 220.019531 C 195.679688 220.019531 197.503906 218.191406 197.503906 215.953125 C 197.503906 213.71875 195.679688 211.890625 193.441406 211.890625 Z M 193.441406 195.671875 L 128.59375 195.671875 C 126.359375 195.671875 124.53125 197.5 124.53125 199.734375 C 124.53125 201.953125 126.359375 203.78125 128.59375 203.78125 L 193.441406 203.78125 C 195.679688 203.78125 197.503906 201.953125 197.503906 199.734375 C 197.503906 197.5 195.679688 195.671875 193.441406 195.671875 Z M 193.441406 179.453125 L 128.59375 179.453125 C 126.359375 179.453125 124.53125 181.257812 124.53125 183.496094 C 124.53125 185.734375 126.359375 187.5625 128.59375 187.5625 L 193.441406 187.5625 C 195.679688 187.5625 197.503906 185.734375 197.503906 183.496094 C 197.503906 181.257812 195.679688 179.453125 193.441406 179.453125 Z M 271.359375 193.761719 C 286.496094 182.285156 294.804688 167.113281 294.804688 151.039062 C 294.804688 117.492188 258.433594 90.191406 213.730469 90.191406 C 173.070312 90.191406 139.222656 112.628906 133.496094 142.234375 C 142.175781 140.054688 151.40625 138.867188 161.027344 138.867188 C 210.203125 138.867188 250.207031 169.824219 250.207031 207.84375 C 250.207031 208.5625 250.164062 209.304688 250.125 210.042969 L 276.488281 224.226562 L 269.921875 197.992188 C 269.511719 196.410156 270.128906 194.789062 271.378906 193.761719 Z M 242.105469 207.84375 C 242.105469 174.300781 205.730469 146.996094 161.027344 146.996094 C 150.074219 146.996094 139.609375 148.660156 130.09375 151.613281 C 130.050781 151.613281 129.96875 151.65625 129.929688 151.65625 C 100.613281 160.8125 79.933594 182.574219 79.933594 207.84375 C 79.933594 223.898438 88.242188 239.089844 103.339844 250.566406 C 104.632812 251.53125 105.1875 253.195312 104.839844 254.777344 L 98.253906 281.074219 L 128.472656 264.796875 C 129.394531 264.28125 130.480469 264.199219 131.546875 264.488281 C 141.066406 267.277344 150.996094 268.695312 161.007812 268.695312 C 205.730469 268.695312 242.105469 241.390625 242.105469 207.84375 Z M 286.578125 231.207031 C 286.988281 232.746094 286.414062 234.410156 285.101562 235.394531 C 284.386719 235.949219 283.523438 236.238281 282.640625 236.238281 C 282.003906 236.238281 281.308594 236.074219 280.734375 235.746094 L 249.121094 218.707031 C 242.351562 251.574219 205.402344 276.804688 161.007812 276.804688 C 150.792969 276.804688 140.65625 275.429688 130.851562 272.71875 L 94.007812 292.550781 C 93.433594 292.878906 92.753906 293.042969 92.097656 293.042969 C 91.214844 293.042969 90.355469 292.757812 89.636719 292.179688 C 88.363281 291.214844 87.8125 289.554688 88.179688 288.015625 L 96.324219 255.351562 C 80.507812 242.480469 71.828125 225.726562 71.828125 207.84375 C 71.828125 179.71875 93.71875 155.472656 125.023438 144.757812 C 129.148438 109.425781 167.386719 82.082031 213.730469 82.082031 C 262.90625 82.082031 302.910156 113.039062 302.910156 151.039062 C 302.910156 168.902344 294.230469 185.695312 278.433594 198.585938 Z M 96.160156 207.84375 C 96.160156 205.609375 94.335938 203.78125 92.097656 203.78125 C 89.863281 203.78125 88.035156 205.609375 88.035156 207.84375 C 88.035156 221.3125 95.21875 234.164062 108.242188 244.121094 C 108.960938 244.675781 109.824219 244.921875 110.664062 244.921875 C 111.875 244.921875 113.105469 244.347656 113.90625 243.339844 C 115.261719 241.554688 114.933594 239.007812 113.148438 237.65625 C 102.191406 229.300781 96.160156 218.707031 96.160156 207.84375 Z M 213.730469 98.300781 C 188.539062 98.300781 164.617188 108.214844 151.242188 124.0625 C 149.828125 125.769531 150.03125 128.332031 151.734375 129.792969 C 152.496094 130.429688 153.4375 130.757812 154.363281 130.757812 C 155.550781 130.757812 156.679688 130.261719 157.480469 129.296875 C 169.335938 115.175781 190.898438 106.429688 213.730469 106.429688 C 215.945312 106.429688 217.773438 104.601562 217.773438 102.363281 C 217.773438 100.125 215.945312 98.300781 213.730469 98.300781 Z M 99.074219 186.578125 C 97.371094 185.117188 97.125 182.574219 98.582031 180.871094 C 111.9375 165 135.835938 155.105469 161.007812 155.105469 C 163.246094 155.105469 165.070312 156.933594 165.070312 159.167969 C 165.070312 161.386719 163.246094 163.214844 161.007812 163.214844 C 138.195312 163.214844 116.632812 171.980469 104.757812 186.105469 C 103.9375 187.070312 102.808594 187.5625 101.636719 187.5625 C 100.734375 187.5625 99.792969 187.234375 99.074219 186.578125 " fill-opacity="1" fill-rule="nonzero"/></g></svg>