<svg xmlns="http://www.w3.org/2000/svg" xmlns:xlink="http://www.w3.org/1999/xlink" width="500" zoomAndPan="magnify" viewBox="0 0 375 374.999991" height="500" preserveAspectRatio="xMidYMid meet" version="1.0"><defs><clipPath id="83ee31227b"><path d="M 20.398438 20.398438 L 354.601562 20.398438 L 354.601562 354.601562 L 20.398438 354.601562 Z M 20.398438 20.398438 " clip-rule="nonzero"/></clipPath><clipPath id="ddfa2d80a3"><path d="M 187.5 20.398438 C 95.214844 20.398438 20.398438 95.214844 20.398438 187.5 C 20.398438 279.785156 95.214844 354.601562 187.5 354.601562 C 279.785156 354.601562 354.601562 279.785156 354.601562 187.5 C 354.601562 95.214844 279.785156 20.398438 187.5 20.398438 " clip-rule="nonzero"/></clipPath><clipPath id="eb6f64a534"><path d="M 79 64.199219 L 296.1875 64.199219 L 296.1875 310.949219 L 79 310.949219 Z M 79 64.199219 " clip-rule="nonzero"/></clipPath></defs><g clip-path="url(#83ee31227b)"><g clip-path="url(#ddfa2d80a3)"><path fill="#cfcfcf" d="M 20.398438 20.398438 L 354.601562 20.398438 L 354.601562 354.601562 L 20.398438 354.601562 Z M 20.398438 20.398438 " fill-opacity="1" fill-rule="nonzero"/></g></g><g clip-path="url(#eb6f64a534)"><path fill="#505050" d="M 295.164062 310.699219 C 295.164062 310.621094 295.398438 310.472656 295.683594 310.359375 C 295.96875 310.25 296.203125 310.3125 296.203125 310.496094 C 296.203125 310.683594 295.96875 310.835938 295.683594 310.835938 C 295.398438 310.835938 295.164062 310.773438 295.164062 310.699219 Z M 127.171875 305.5 C 120.089844 302.855469 107.871094 294.65625 95.035156 283.933594 C 89.121094 278.992188 81.488281 271.523438 80.578125 269.789062 C 78.691406 266.1875 80.308594 249.671875 84.46875 230.136719 C 86.695312 219.679688 87.339844 217.644531 88.9375 216.046875 C 90.457031 214.527344 94.273438 212.523438 99.964844 210.261719 C 109.179688 206.601562 128.480469 200.601562 137.410156 198.625 C 141.324219 197.757812 141.953125 197.707031 144.011719 198.0625 C 151.003906 199.269531 161.71875 206.324219 173.65625 217.582031 C 177.613281 221.316406 180.597656 226.339844 182.757812 232.917969 C 183.292969 234.542969 183.761719 235.914062 183.800781 235.964844 C 183.839844 236.015625 187.378906 236.453125 191.660156 236.933594 C 207.382812 238.710938 215.777344 240.238281 219.304688 241.96875 C 223.183594 243.871094 226.707031 248.507812 228.613281 254.222656 C 229.578125 257.105469 230.535156 262.648438 230.539062 265.355469 L 230.539062 267.007812 L 227.269531 267.007812 L 228.707031 268.484375 C 231.136719 270.980469 232.046875 273.234375 232.214844 277.164062 C 232.328125 279.902344 232.214844 280.996094 231.613281 282.988281 L 230.867188 285.441406 L 196.914062 285.457031 L 162.960938 285.46875 L 158.097656 289.671875 C 149.191406 297.367188 142.234375 302.40625 137.046875 304.914062 C 134.492188 306.152344 133.878906 306.3125 131.710938 306.296875 C 130.066406 306.28125 128.574219 306.023438 127.175781 305.5 Z M 134.46875 298.800781 C 137.523438 297.238281 142.574219 293.695312 148.242188 289.144531 L 152.628906 285.617188 L 142.074219 285.523438 L 131.515625 285.433594 L 131.515625 278.832031 L 225.671875 278.832031 L 225.671875 277.875 C 225.667969 276.316406 225.011719 274.402344 224.105469 273.328125 C 223.644531 272.777344 221.070312 271.058594 218.386719 269.507812 L 213.511719 266.695312 L 173.425781 266.15625 C 151.378906 265.859375 131.363281 265.613281 128.953125 265.613281 L 124.566406 265.613281 L 124.566406 259.007812 L 128.648438 259.015625 C 130.894531 259.019531 149.148438 259.25 169.214844 259.527344 C 189.277344 259.804688 209.632812 260.039062 214.445312 260.042969 L 223.199219 260.050781 L 222.515625 257.585938 C 221.183594 252.78125 218.910156 249.234375 216.292969 247.882812 C 212.859375 246.109375 195.714844 243.722656 168.867188 241.277344 C 157.679688 240.261719 135.609375 238.484375 134.15625 238.484375 C 133.460938 238.484375 133.433594 238.339844 133.550781 235.265625 C 133.617188 233.496094 133.71875 232 133.773438 231.9375 C 133.832031 231.878906 135.730469 231.96875 137.996094 232.140625 C 140.261719 232.3125 142.148438 232.429688 142.195312 232.402344 C 142.238281 232.371094 141.734375 231.261719 141.074219 229.9375 C 139.691406 227.160156 139.074219 224.851562 139.882812 225.46875 L 144.976562 229.410156 L 149.582031 232.972656 L 159.398438 233.800781 C 164.796875 234.257812 170.761719 234.796875 172.65625 234.996094 C 174.546875 235.199219 176.171875 235.285156 176.261719 235.195312 C 176.5 234.960938 175.082031 231.472656 173.449219 228.277344 C 171.835938 225.121094 168.839844 221.910156 163.132812 217.230469 C 153.210938 209.097656 145.75 204.394531 142.773438 204.394531 C 141.089844 204.394531 129.5625 207.398438 120.746094 210.136719 C 110.933594 213.1875 102.730469 216.183594 97.890625 218.496094 C 94.535156 220.097656 93.902344 220.53125 93.496094 221.511719 C 92.648438 223.550781 89.722656 237.726562 88.125 247.527344 C 87.332031 252.40625 86.347656 261.351562 86.347656 263.71875 C 86.347656 266.011719 86.441406 266.332031 87.515625 267.738281 C 90.527344 271.6875 107.113281 285.558594 115.707031 291.320312 C 122.425781 295.828125 130.097656 300.011719 131.691406 300.042969 C 131.882812 300.046875 133.132812 299.488281 134.46875 298.800781 Z M 238.703125 235.816406 C 237.363281 235.765625 231.738281 235.554688 226.195312 235.347656 C 220.652344 235.144531 215.101562 234.816406 213.859375 234.625 C 208.34375 233.773438 198.5625 227.339844 184.824219 215.535156 C 175.265625 207.320312 174.519531 206.367188 173.324219 200.855469 C 171.992188 194.691406 173.199219 174.875 175.164062 170.753906 C 176.285156 168.398438 178.542969 166.441406 181.65625 165.125 C 183.03125 164.542969 184.125 163.945312 184.089844 163.796875 C 184.054688 163.644531 182.75 161.253906 181.191406 158.480469 C 176.492188 150.121094 171.019531 139.535156 168.058594 133.078125 C 159.773438 115.007812 156.792969 103.828125 158.300781 96.496094 C 159.273438 91.75 163.234375 85.960938 167.277344 83.363281 C 168.847656 82.351562 169 82.125 169.546875 79.945312 C 171.128906 73.644531 176.5 67.816406 183.265625 65.066406 C 184.476562 64.574219 185.578125 64.296875 185.714844 64.453125 C 185.851562 64.609375 194.277344 80.300781 204.4375 99.328125 C 214.597656 118.355469 222.992188 134 223.085938 134.09375 C 223.183594 134.191406 223.757812 133.976562 224.363281 133.617188 C 225.085938 133.191406 226.378906 132.914062 228.089844 132.8125 C 232.449219 132.5625 237.21875 134.511719 244.957031 139.703125 C 251.78125 144.277344 261.597656 152.390625 262.996094 154.613281 C 265.359375 158.359375 267.953125 168.867188 270.300781 184.222656 C 271.835938 194.273438 272.652344 201.996094 272.703125 207.003906 C 272.746094 211.511719 272.691406 211.992188 271.925781 213.441406 C 269.941406 217.210938 263.269531 224.082031 254.109375 231.789062 L 249.042969 236.050781 L 245.089844 235.984375 C 242.914062 235.945312 240.039062 235.871094 238.703125 235.820312 Z M 249.152344 227.152344 C 257.4375 220.265625 264.480469 213.222656 265.742188 210.5625 C 266.210938 209.574219 266.242188 208.761719 265.953125 204.902344 C 264.828125 189.777344 260.792969 166.640625 258.140625 160.105469 C 257.257812 157.925781 256.785156 157.441406 250.609375 152.34375 C 241.484375 144.816406 232.324219 139.347656 228.835938 139.347656 C 228.292969 139.347656 227.101562 139.765625 226.191406 140.273438 C 225.285156 140.78125 222.964844 141.996094 221.039062 142.96875 C 218.011719 144.496094 217.5 144.882812 217.296875 145.785156 C 217.164062 146.359375 216.875 152.148438 216.652344 158.652344 C 216.429688 165.160156 215.875 178.929688 215.421875 189.257812 C 214.96875 199.582031 214.664062 208.097656 214.746094 208.179688 C 215.027344 208.460938 219.769531 207.515625 221.710938 206.789062 C 224.417969 205.773438 226.09375 204.011719 226.820312 201.410156 C 227.617188 198.570312 228.664062 191.453125 229.300781 184.570312 C 229.742188 179.761719 230.886719 163.542969 230.886719 162.058594 C 230.886719 161.558594 233.148438 161.457031 235.917969 161.839844 L 237.574219 162.066406 L 237.328125 167.09375 L 237.078125 172.125 L 238.75 170.847656 C 239.671875 170.140625 240.480469 169.734375 240.550781 169.941406 C 240.699219 170.390625 238.878906 174.371094 237.519531 176.566406 C 236.636719 177.992188 236.511719 178.617188 236.132812 183.523438 C 235.242188 195.007812 233.761719 203.367188 232.058594 206.5 C 230.144531 210.023438 226.550781 212.53125 221.558594 213.828125 C 218.523438 214.617188 212.507812 215.046875 209.585938 214.679688 L 207.605469 214.433594 L 207.605469 212.371094 C 207.605469 211.238281 207.558594 210.308594 207.5 210.308594 C 207.441406 210.308594 206.308594 210.84375 204.980469 211.492188 C 202.941406 212.492188 200.703125 213.273438 195.5 214.789062 C 194.765625 215.003906 195.050781 215.3125 198.414062 217.941406 C 203.03125 221.550781 210.398438 226.546875 212.429688 227.445312 C 213.539062 227.941406 215.308594 228.207031 219.027344 228.445312 C 223.957031 228.761719 237.359375 229.277344 243.417969 229.386719 L 246.398438 229.441406 Z M 191.796875 202.964844 L 192.054688 194.214844 L 195.007812 189.886719 C 198.628906 184.578125 201.820312 178.460938 202.378906 175.765625 C 202.726562 174.101562 202.707031 173.292969 202.277344 171.175781 C 201.835938 169.015625 199.652344 162.925781 199.132812 162.402344 C 199.046875 162.316406 197.59375 163.371094 195.90625 164.75 C 193.554688 166.671875 191.523438 167.898438 187.207031 170 C 184.105469 171.507812 181.425781 173.015625 181.25 173.351562 C 180.53125 174.714844 179.644531 184.828125 179.640625 191.699219 C 179.636719 202.03125 179.8125 202.433594 187.234375 208.800781 C 189.3125 210.582031 191.128906 211.964844 191.277344 211.875 C 191.421875 211.785156 191.65625 207.773438 191.796875 202.964844 Z M 200.804688 206.113281 C 203.226562 205.207031 204.113281 204.144531 206.449219 199.351562 L 208.316406 195.523438 L 208.648438 188.742188 C 208.828125 185.011719 209.046875 180.707031 209.128906 179.175781 L 209.28125 176.394531 L 208.453125 179.015625 C 207.359375 182.476562 204.714844 187.570312 201.4375 192.535156 L 198.777344 196.570312 L 198.589844 201.699219 C 198.484375 204.523438 198.511719 206.832031 198.648438 206.832031 C 198.78125 206.828125 199.753906 206.507812 200.804688 206.113281 Z M 210.035156 156.742188 C 210.429688 144.84375 210.476562 144.324219 211.292969 142.503906 C 212.25 140.378906 212.3125 140.5 209.472656 139.144531 C 208.492188 138.675781 207.457031 138.386719 207.167969 138.496094 C 206.125 138.894531 203.71875 144.980469 202.539062 150.1875 L 201.933594 152.851562 L 204.246094 157.492188 C 206.480469 161.976562 208.960938 168.652344 209.027344 170.351562 C 209.054688 171.070312 209.09375 171.042969 209.34375 170.132812 C 209.5 169.558594 209.808594 163.53125 210.035156 156.742188 Z M 192.820312 158.5 C 194.179688 157.351562 194.203125 157.289062 195.273438 152.007812 L 196.355469 146.675781 L 188.675781 131.273438 C 178.699219 111.261719 173.46875 99.875 169.9375 90.476562 C 169.699219 89.839844 169.574219 89.898438 168.457031 91.171875 C 166.953125 92.890625 165.460938 95.800781 164.855469 98.207031 C 163.332031 104.242188 168.972656 120.675781 179.671875 141.382812 C 182.902344 147.640625 189.296875 159.265625 189.984375 160.140625 C 190.363281 160.625 190.199219 160.722656 192.820312 158.5 Z M 200.09375 136.652344 C 200.746094 135.398438 202.992188 133.164062 204.304688 132.46875 C 204.972656 132.117188 206.199219 131.921875 207.710938 131.929688 C 209.746094 131.941406 210.449219 132.132812 212.835938 133.320312 C 214.355469 134.074219 215.597656 134.675781 215.597656 134.65625 C 215.597656 134.476562 182.828125 73.363281 182.613281 73.148438 C 182.125 72.652344 177.960938 77.136719 176.929688 79.265625 C 175.628906 81.960938 175.34375 85.042969 176.164062 87.554688 C 177.203125 90.742188 179.410156 96.128906 182.125 102.128906 C 184.617188 107.644531 199.292969 137.609375 199.496094 137.609375 C 199.550781 137.609375 199.820312 137.179688 200.09375 136.652344 Z M 200.09375 136.652344 " fill-opacity="1" fill-rule="nonzero"/></g></svg>