<svg xmlns="http://www.w3.org/2000/svg" xmlns:xlink="http://www.w3.org/1999/xlink" width="793" zoomAndPan="magnify" viewBox="0 0 594.95996 842.24997" height="1122" preserveAspectRatio="xMidYMid meet" version="1.0"><defs><clipPath id="07ccd2075d"><path d="M 130 217.335938 L 463.695312 217.335938 L 463.695312 628.808594 L 130 628.808594 Z M 130 217.335938 " clip-rule="nonzero"/></clipPath><clipPath id="1c9faf1a46"><path d="M 473 211.785156 L 482.246094 211.785156 L 482.246094 239 L 473 239 Z M 473 211.785156 " clip-rule="nonzero"/></clipPath><clipPath id="3e346a374e"><path d="M 112.386719 211.785156 L 122 211.785156 L 122 239 L 112.386719 239 Z M 112.386719 211.785156 " clip-rule="nonzero"/></clipPath></defs><g clip-path="url(#07ccd2075d)"><path fill="#abd5d5" d="M 130.3125 628.808594 L 463.675781 628.808594 L 463.675781 217.578125 L 130.3125 217.578125 L 130.3125 628.808594 " fill-opacity="1" fill-rule="evenodd"/></g><path fill="#bddfdf" d="M 120.09375 232.765625 L 473.894531 232.765625 L 473.894531 217.578125 L 120.09375 217.578125 L 120.09375 232.765625 " fill-opacity="1" fill-rule="evenodd"/><path fill="#669999" d="M 130.3125 240.414062 L 463.675781 240.414062 L 463.675781 232.765625 L 130.3125 232.765625 L 130.3125 240.414062 " fill-opacity="1" fill-rule="evenodd"/><g clip-path="url(#1c9faf1a46)"><path fill="#edb368" d="M 477.882812 211.785156 C 475.515625 211.785156 473.578125 213.71875 473.578125 216.089844 L 473.578125 234.253906 C 473.578125 236.621094 475.515625 238.554688 477.882812 238.554688 C 480.246094 238.554688 482.179688 236.621094 482.179688 234.253906 L 482.179688 216.089844 C 482.179688 213.71875 480.246094 211.785156 477.882812 211.785156 " fill-opacity="1" fill-rule="evenodd"/></g><g clip-path="url(#3e346a374e)"><path fill="#edb368" d="M 116.753906 211.785156 C 114.382812 211.785156 112.449219 213.71875 112.449219 216.089844 L 112.449219 234.253906 C 112.449219 236.621094 114.382812 238.554688 116.753906 238.554688 C 119.117188 238.554688 121.050781 236.621094 121.050781 234.253906 L 121.050781 216.089844 C 121.050781 213.71875 119.117188 211.785156 116.753906 211.785156 " fill-opacity="1" fill-rule="evenodd"/></g><path fill="#669999" d="M 273.570312 360 L 244.125 326.324219 L 243.742188 325.886719 L 149.320312 325.886719 L 149.320312 328.4375 L 242.601562 328.4375 L 271.660156 361.671875 L 273.570312 360 " fill-opacity="1" fill-rule="evenodd"/><path fill="#669999" d="M 151.023438 293.453125 L 228.210938 293.453125 L 228.210938 290.53125 L 151.023438 290.53125 L 151.023438 293.453125 " fill-opacity="1" fill-rule="evenodd"/><path fill="#669999" d="M 228.207031 296.9375 C 202.476562 296.9375 176.75 296.9375 151.023438 296.9375 C 151.023438 297.914062 151.023438 298.886719 151.023438 299.859375 C 176.75 299.859375 202.476562 299.859375 228.207031 299.859375 C 228.207031 298.886719 228.207031 297.914062 228.207031 296.9375 " fill-opacity="1" fill-rule="evenodd"/><path fill="#669999" d="M 228.207031 303.347656 C 202.476562 303.347656 176.75 303.347656 151.023438 303.347656 C 151.023438 304.320312 151.023438 305.296875 151.023438 306.269531 C 176.75 306.269531 202.476562 306.269531 228.207031 306.269531 C 228.207031 305.296875 228.207031 304.320312 228.207031 303.347656 " fill-opacity="1" fill-rule="evenodd"/><path fill="#669999" d="M 228.207031 309.757812 C 202.476562 309.757812 176.75 309.757812 151.023438 309.757812 C 151.023438 310.730469 151.023438 311.703125 151.023438 312.679688 C 176.75 312.679688 202.476562 312.679688 228.207031 312.679688 C 228.207031 311.703125 228.207031 310.730469 228.207031 309.757812 " fill-opacity="1" fill-rule="evenodd"/><path fill="#669999" d="M 151.023438 319.085938 L 228.210938 319.085938 L 228.210938 316.164062 L 151.023438 316.164062 L 151.023438 319.085938 " fill-opacity="1" fill-rule="evenodd"/><path fill="#669999" d="M 333.683594 411.472656 L 362.742188 378.234375 L 450.503906 378.234375 L 450.503906 375.683594 L 361.597656 375.683594 L 361.214844 376.125 L 331.769531 409.800781 L 333.683594 411.472656 " fill-opacity="1" fill-rule="evenodd"/><path fill="#669999" d="M 363.804688 343.742188 L 440.988281 343.742188 L 440.988281 340.820312 L 363.804688 340.820312 L 363.804688 343.742188 " fill-opacity="1" fill-rule="evenodd"/><path fill="#669999" d="M 440.988281 347.230469 C 415.261719 347.230469 389.535156 347.230469 363.804688 347.230469 C 363.804688 348.203125 363.804688 349.175781 363.804688 350.152344 C 389.535156 350.152344 415.261719 350.152344 440.988281 350.152344 C 440.988281 349.175781 440.988281 348.203125 440.988281 347.230469 " fill-opacity="1" fill-rule="evenodd"/><path fill="#669999" d="M 440.988281 353.640625 C 415.261719 353.640625 389.535156 353.640625 363.804688 353.640625 C 363.804688 354.609375 363.804688 355.585938 363.804688 356.5625 C 389.535156 356.5625 415.261719 356.5625 440.988281 356.5625 C 440.988281 355.585938 440.988281 354.609375 440.988281 353.640625 " fill-opacity="1" fill-rule="evenodd"/><path fill="#669999" d="M 440.988281 360.050781 C 415.261719 360.050781 389.535156 360.050781 363.804688 360.050781 C 363.804688 361.023438 363.804688 361.996094 363.804688 362.96875 C 389.535156 362.96875 415.261719 362.96875 440.988281 362.96875 C 440.988281 361.996094 440.988281 361.023438 440.988281 360.050781 " fill-opacity="1" fill-rule="evenodd"/><path fill="#669999" d="M 363.804688 369.378906 L 440.988281 369.378906 L 440.988281 366.460938 L 363.804688 366.460938 L 363.804688 369.378906 " fill-opacity="1" fill-rule="evenodd"/><path fill="#ffffff" d="M 270.054688 274.796875 L 447.425781 274.796875 L 447.425781 258.035156 L 270.054688 258.035156 L 270.054688 274.796875 " fill-opacity="1" fill-rule="evenodd"/><path fill="#669999" d="M 273.914062 498.816406 L 244.851562 532.050781 L 151.574219 532.050781 L 151.574219 534.601562 L 246 534.601562 L 246.378906 534.164062 L 275.824219 500.488281 L 273.914062 498.816406 " fill-opacity="1" fill-rule="evenodd"/><path fill="#669999" d="M 153.277344 498.351562 L 230.460938 498.351562 L 230.460938 495.425781 L 153.277344 495.425781 L 153.277344 498.351562 " fill-opacity="1" fill-rule="evenodd"/><path fill="#669999" d="M 230.460938 501.839844 C 204.734375 501.839844 179.003906 501.839844 153.277344 501.839844 C 153.277344 502.8125 153.277344 503.789062 153.277344 504.761719 C 179.003906 504.761719 204.734375 504.761719 230.460938 504.761719 C 230.460938 503.789062 230.460938 502.8125 230.460938 501.839844 " fill-opacity="1" fill-rule="evenodd"/><path fill="#669999" d="M 230.460938 508.246094 C 204.734375 508.246094 179.003906 508.246094 153.277344 508.246094 C 153.277344 509.222656 153.277344 510.195312 153.277344 511.167969 C 179.003906 511.167969 204.734375 511.167969 230.460938 511.167969 C 230.460938 510.195312 230.460938 509.222656 230.460938 508.246094 " fill-opacity="1" fill-rule="evenodd"/><path fill="#669999" d="M 230.460938 514.660156 C 204.734375 514.660156 179.003906 514.660156 153.277344 514.660156 C 153.277344 515.632812 153.277344 516.605469 153.277344 517.578125 C 179.003906 517.578125 204.734375 517.578125 230.460938 517.578125 C 230.460938 516.605469 230.460938 515.632812 230.460938 514.660156 " fill-opacity="1" fill-rule="evenodd"/><path fill="#669999" d="M 153.277344 523.988281 L 230.460938 523.988281 L 230.460938 521.066406 L 153.277344 521.066406 L 153.277344 523.988281 " fill-opacity="1" fill-rule="evenodd"/><path fill="#ffffff" d="M 238.078125 297.433594 C 239.980469 297.433594 241.527344 295.882812 241.527344 293.980469 C 241.527344 292.082031 239.980469 290.53125 238.078125 290.53125 C 236.179688 290.53125 234.628906 292.082031 234.628906 293.980469 C 234.628906 295.882812 236.179688 297.433594 238.078125 297.433594 " fill-opacity="1" fill-rule="evenodd"/><path fill="#ffffff" d="M 240.332031 502.332031 C 242.230469 502.332031 243.78125 500.78125 243.78125 498.882812 C 243.78125 496.976562 242.230469 495.425781 240.332031 495.425781 C 238.429688 495.425781 236.882812 496.976562 236.882812 498.882812 C 236.882812 500.78125 238.429688 502.332031 240.332031 502.332031 " fill-opacity="1" fill-rule="evenodd"/><path fill="#ffffff" d="M 448.6875 347.722656 C 450.589844 347.722656 452.136719 346.171875 452.136719 344.273438 C 452.136719 342.371094 450.589844 340.820312 448.6875 340.820312 C 446.789062 340.820312 445.242188 342.371094 445.242188 344.273438 C 445.242188 346.171875 446.789062 347.722656 448.6875 347.722656 " fill-opacity="1" fill-rule="evenodd"/><path fill="#669999" d="M 311.386719 350.859375 C 326.476562 350.859375 339.097656 355.804688 341.082031 374.378906 L 350.640625 463.738281 L 349.050781 482.507812 C 348.953125 483.640625 348.28125 484.589844 347.34375 485.089844 L 347.1875 486.921875 C 347.035156 488.699219 345.460938 490.023438 343.6875 489.863281 C 343.492188 489.84375 343.304688 489.808594 343.121094 489.757812 L 342.972656 491.515625 C 342.824219 493.292969 341.246094 494.617188 339.472656 494.453125 C 337.695312 494.292969 336.367188 492.707031 336.515625 490.929688 L 337.636719 477.707031 L 336.101562 481.328125 C 335.40625 482.964844 333.503906 483.753906 331.855469 483.0625 C 330.214844 482.375 329.421875 480.464844 330.121094 478.820312 L 334.210938 469.183594 C 334.378906 468.789062 334.617188 468.445312 334.898438 468.15625 L 334.6875 466.027344 L 327.796875 412.394531 L 327.019531 479.945312 C 327.019531 514.785156 325.910156 549.621094 325.910156 584.460938 C 327.371094 589.375 347.964844 591.59375 347.433594 599.226562 C 331.632812 599.238281 320.257812 599.226562 304.453125 599.226562 C 302.503906 599.226562 301.515625 593.589844 303.351562 584.460938 L 299.449219 473.730469 L 294.542969 473.730469 L 290.636719 584.460938 C 292.476562 593.589844 291.484375 599.226562 289.539062 599.226562 C 273.734375 599.226562 262.355469 599.238281 246.554688 599.226562 C 246.027344 591.59375 266.621094 589.375 268.082031 584.460938 C 268.082031 549.621094 266.972656 514.785156 266.972656 479.945312 L 266.195312 412.394531 L 259.304688 466.027344 L 259.089844 468.15625 C 259.375 468.445312 259.613281 468.789062 259.78125 469.183594 L 263.867188 478.820312 C 264.566406 480.464844 263.777344 482.375 262.132812 483.0625 C 260.488281 483.753906 258.585938 482.964844 257.890625 481.328125 L 256.355469 477.707031 L 257.472656 490.929688 C 257.621094 492.707031 256.292969 494.292969 254.515625 494.453125 C 252.742188 494.617188 251.167969 493.292969 251.015625 491.515625 L 250.867188 489.757812 C 250.683594 489.808594 250.496094 489.84375 250.308594 489.863281 C 248.53125 490.023438 246.953125 488.699219 246.800781 486.921875 L 246.648438 485.089844 C 245.710938 484.589844 245.035156 483.640625 244.941406 482.507812 L 243.351562 463.738281 L 252.90625 374.378906 C 254.894531 355.804688 267.511719 350.859375 282.605469 350.859375 L 286.007812 350.859375 L 286.007812 343.457031 C 283.363281 341.957031 281.492188 340.0625 279.671875 338.042969 C 278.1875 336.398438 276.25 333.507812 274.78125 328.128906 C 272.183594 328.703125 268.082031 324.46875 268.078125 319.542969 C 268.070312 314.796875 270.992188 313.796875 272.761719 314.058594 C 272.644531 311.640625 272.59375 309.003906 272.636719 306.109375 C 272.949219 285.046875 291.003906 284.46875 296.996094 284.339844 C 302.988281 284.46875 321.039062 285.046875 321.355469 306.109375 C 321.394531 309.003906 321.351562 311.640625 321.226562 314.058594 C 322.996094 313.796875 325.921875 314.796875 325.914062 319.542969 C 325.90625 324.46875 321.808594 328.703125 319.207031 328.128906 C 317.738281 333.507812 315.804688 336.398438 314.320312 338.042969 C 312.496094 340.0625 310.628906 341.957031 307.984375 343.457031 L 307.984375 350.859375 L 311.386719 350.859375 " fill-opacity="1" fill-rule="evenodd"/></svg>