<svg xmlns="http://www.w3.org/2000/svg" xmlns:xlink="http://www.w3.org/1999/xlink" width="1080" zoomAndPan="magnify" viewBox="0 0 810 809.999993" height="1080" preserveAspectRatio="xMidYMid meet" version="1.0"><defs><filter x="0%" y="0%" width="100%" height="100%" id="3cc5e3edc2"><feColorMatrix values="0 0 0 0 1 0 0 0 0 1 0 0 0 0 1 0 0 0 1 0" color-interpolation-filters="sRGB"/></filter><clipPath id="61e833f3b3"><path d="M 164 573 L 278 573 L 278 654.222656 L 164 654.222656 Z M 164 573 " clip-rule="nonzero"/></clipPath><clipPath id="29079a582d"><path d="M 264 553 L 369 553 L 369 654.222656 L 264 654.222656 Z M 264 553 " clip-rule="nonzero"/></clipPath><clipPath id="fb1ad2ef0c"><path d="M 164 603 L 369 603 L 369 654.222656 L 164 654.222656 Z M 164 603 " clip-rule="nonzero"/></clipPath><clipPath id="2ceb0c24d6"><path d="M 30.027344 291 L 590 291 L 590 413 L 30.027344 413 Z M 30.027344 291 " clip-rule="nonzero"/></clipPath><clipPath id="2ab933bd99"><path d="M 30.027344 432 L 590 432 L 590 487 L 30.027344 487 Z M 30.027344 432 " clip-rule="nonzero"/></clipPath><clipPath id="2185c9db04"><path d="M 30.027344 506 L 590 506 L 590 561 L 30.027344 561 Z M 30.027344 506 " clip-rule="nonzero"/></clipPath><clipPath id="534c739887"><path d="M 30.027344 155.472656 L 590 155.472656 L 590 277 L 30.027344 277 Z M 30.027344 155.472656 " clip-rule="nonzero"/></clipPath><clipPath id="5794147fb8"><path d="M 72 155.472656 L 633 155.472656 L 633 277 L 72 277 Z M 72 155.472656 " clip-rule="nonzero"/></clipPath><clipPath id="6d18909475"><path d="M 30.027344 155.472656 L 84 155.472656 L 84 561 L 30.027344 561 Z M 30.027344 155.472656 " clip-rule="nonzero"/></clipPath><mask id="a3247bca7b"><g filter="url(#3cc5e3edc2)"><rect x="-81" width="972" fill="#000000" y="-80.999999" height="971.999992" fill-opacity="0.3"/></g></mask><clipPath id="8c429da87e"><path d="M 0.0273438 0.472656 L 52 0.472656 L 52 122 L 0.0273438 122 Z M 0.0273438 0.472656 " clip-rule="nonzero"/></clipPath><clipPath id="80b1b2b064"><path d="M 0.0273438 136 L 52 136 L 52 258 L 0.0273438 258 Z M 0.0273438 136 " clip-rule="nonzero"/></clipPath><clipPath id="2dd8c80b42"><path d="M 0.0273438 277 L 49 277 L 49 332 L 0.0273438 332 Z M 0.0273438 277 " clip-rule="nonzero"/></clipPath><clipPath id="06d77e999f"><path d="M 0.0273438 351 L 49 351 L 49 405.878906 L 0.0273438 405.878906 Z M 0.0273438 351 " clip-rule="nonzero"/></clipPath><clipPath id="b8335e612d"><rect x="0" width="54" y="0" height="406"/></clipPath><clipPath id="86e0f505ea"><path d="M 346 217 L 780.027344 217 L 780.027344 651 L 346 651 Z M 346 217 " clip-rule="nonzero"/></clipPath><clipPath id="28e640fb4e"><path d="M 164 647 L 369 647 L 369 654.222656 L 164 654.222656 Z M 164 647 " clip-rule="nonzero"/></clipPath><clipPath id="4f4a200d0d"><path d="M 163 353 L 467 353 L 467 654.222656 L 163 654.222656 Z M 163 353 " clip-rule="nonzero"/></clipPath><mask id="531ff8d718"><g filter="url(#3cc5e3edc2)"><rect x="-81" width="972" fill="#000000" y="-80.999999" height="971.999992" fill-opacity="0.3"/></g></mask><clipPath id="66b7ad03f0"><path d="M 1 106 L 130 106 L 130 301.222656 L 1 301.222656 Z M 1 106 " clip-rule="nonzero"/></clipPath><clipPath id="0772f1b5e5"><path d="M 229 0.28125 L 302 0.28125 L 302 71 L 229 71 Z M 229 0.28125 " clip-rule="nonzero"/></clipPath><clipPath id="20340ad31b"><rect x="0" width="304" y="0" height="302"/></clipPath></defs><rect x="-81" width="972" fill="#ffffff" y="-80.999999" height="971.999992" fill-opacity="1"/><rect x="-81" width="972" fill="#ffffff" y="-80.999999" height="971.999992" fill-opacity="1"/><g clip-path="url(#61e833f3b3)"><path fill="#f5b7af" d="M 277.199219 579.628906 L 274.894531 603.015625 L 270.808594 644.371094 C 270.296875 649.492188 264.582031 654.527344 259.28125 654.527344 L 166.917969 654.527344 C 163.777344 654.527344 163.332031 650.914062 166.175781 648.421875 L 167.355469 647.390625 C 178.425781 637.703125 191.476562 630.746094 204.484375 627.597656 L 217.691406 624.402344 C 226.648438 622.238281 234.710938 614.097656 236.101562 605.824219 L 236.585938 603.015625 L 241.527344 573.691406 C 247.789062 578.253906 256.34375 581.058594 265.773438 581.058594 C 269.777344 581.058594 273.621094 580.554688 277.199219 579.628906 Z M 277.199219 579.628906 " fill-opacity="1" fill-rule="nonzero"/></g><g clip-path="url(#29079a582d)"><path fill="#f5b7af" d="M 360.699219 654.527344 L 268.335938 654.527344 C 265.195312 654.527344 263.421875 650.914062 265.34375 648.421875 L 266.144531 647.390625 C 273.648438 637.703125 284.136719 630.746094 295.980469 627.597656 L 308.011719 624.402344 C 316.167969 622.238281 321.230469 614.097656 319.574219 605.824219 L 319.019531 603.015625 L 309.320312 554.527344 L 343.949219 553.449219 L 357.328125 603.015625 L 368.484375 644.371094 C 369.859375 649.492188 366.003906 654.527344 360.699219 654.527344 Z M 360.699219 654.527344 " fill-opacity="1" fill-rule="nonzero"/></g><g clip-path="url(#fb1ad2ef0c)"><path fill="#edd5d2" d="M 368.484375 644.371094 L 357.328125 603.015625 L 319.019531 603.015625 L 319.574219 605.824219 C 321.230469 614.097656 316.167969 622.238281 308.011719 624.402344 L 295.980469 627.597656 C 286.519531 630.113281 277.953125 635.097656 271.046875 641.929688 L 274.890625 603.015625 L 236.582031 603.015625 L 236.105469 605.824219 C 234.707031 614.097656 226.648438 622.238281 217.695312 624.402344 L 204.484375 627.597656 C 191.523438 630.738281 178.507812 637.667969 167.449219 647.308594 C 167.421875 647.335938 167.382812 647.363281 167.351562 647.390625 L 166.175781 648.421875 C 163.332031 650.914062 163.777344 654.527344 166.914062 654.527344 L 259.277344 654.527344 C 261.261719 654.527344 263.296875 653.800781 265.101562 652.648438 C 265.738281 653.734375 266.878906 654.527344 268.335938 654.527344 L 360.699219 654.527344 C 364.972656 654.527344 368.308594 651.257812 368.726562 647.308594 C 368.816406 646.359375 368.753906 645.367188 368.484375 644.371094 Z M 368.484375 644.371094 " fill-opacity="1" fill-rule="nonzero"/></g><g clip-path="url(#2ceb0c24d6)"><path fill="#e7a1a7" d="M 580.695312 412.179688 L 39.214844 412.179688 C 34.164062 412.179688 30.03125 408.046875 30.03125 402.996094 L 30.03125 300.558594 C 30.03125 295.507812 34.164062 291.375 39.214844 291.375 L 580.695312 291.375 C 585.746094 291.375 589.878906 295.507812 589.878906 300.558594 L 589.878906 402.996094 C 589.878906 408.046875 585.746094 412.179688 580.695312 412.179688 Z M 580.695312 412.179688 " fill-opacity="1" fill-rule="nonzero"/></g><g clip-path="url(#2ab933bd99)"><path fill="#67595e" d="M 583.765625 486.308594 L 36.144531 486.308594 C 32.785156 486.308594 30.03125 483.558594 30.03125 480.195312 L 30.03125 438.882812 C 30.03125 435.523438 32.785156 432.769531 36.144531 432.769531 L 583.765625 432.769531 C 587.128906 432.769531 589.878906 435.523438 589.878906 438.882812 L 589.878906 480.195312 C 589.878906 483.558594 587.128906 486.308594 583.765625 486.308594 Z M 583.765625 486.308594 " fill-opacity="1" fill-rule="nonzero"/></g><g clip-path="url(#2185c9db04)"><path fill="#e7a1a7" d="M 583.765625 560.4375 L 36.144531 560.4375 C 32.785156 560.4375 30.03125 557.6875 30.03125 554.324219 L 30.03125 513.011719 C 30.03125 509.652344 32.785156 506.898438 36.144531 506.898438 L 583.765625 506.898438 C 587.128906 506.898438 589.878906 509.652344 589.878906 513.011719 L 589.878906 554.324219 C 589.878906 557.6875 587.128906 560.4375 583.765625 560.4375 Z M 583.765625 560.4375 " fill-opacity="1" fill-rule="nonzero"/></g><g clip-path="url(#534c739887)"><path fill="#e7a1a7" d="M 580.695312 276.277344 L 39.214844 276.277344 C 34.164062 276.277344 30.03125 272.144531 30.03125 267.09375 L 30.03125 164.65625 C 30.03125 159.605469 34.164062 155.472656 39.214844 155.472656 L 580.695312 155.472656 C 585.746094 155.472656 589.878906 159.605469 589.878906 164.65625 L 589.878906 267.09375 C 589.878906 272.144531 585.746094 276.277344 580.695312 276.277344 Z M 580.695312 276.277344 " fill-opacity="1" fill-rule="nonzero"/></g><g clip-path="url(#5794147fb8)"><path fill="#e7a1a7" d="M 623.425781 276.277344 L 81.945312 276.277344 C 76.894531 276.277344 72.761719 272.144531 72.761719 267.09375 L 72.761719 164.65625 C 72.761719 159.605469 76.894531 155.472656 81.945312 155.472656 L 623.425781 155.472656 C 628.476562 155.472656 632.609375 159.605469 632.609375 164.65625 L 632.609375 267.09375 C 632.609375 272.144531 628.476562 276.277344 623.425781 276.277344 Z M 623.425781 276.277344 " fill-opacity="1" fill-rule="nonzero"/></g><path fill="#e7a1a7" d="M 623.425781 412.179688 L 81.945312 412.179688 C 76.894531 412.179688 72.761719 408.046875 72.761719 402.996094 L 72.761719 300.558594 C 72.761719 295.507812 76.894531 291.375 81.945312 291.375 L 623.425781 291.375 C 628.476562 291.375 632.609375 295.507812 632.609375 300.558594 L 632.609375 402.996094 C 632.609375 408.046875 628.476562 412.179688 623.425781 412.179688 Z M 623.425781 412.179688 " fill-opacity="1" fill-rule="nonzero"/><path fill="#67595e" d="M 626.496094 486.308594 L 78.875 486.308594 C 75.515625 486.308594 72.761719 483.558594 72.761719 480.195312 L 72.761719 438.882812 C 72.761719 435.523438 75.515625 432.769531 78.875 432.769531 L 626.496094 432.769531 C 629.859375 432.769531 632.609375 435.523438 632.609375 438.882812 L 632.609375 480.195312 C 632.609375 483.558594 629.859375 486.308594 626.496094 486.308594 Z M 626.496094 486.308594 " fill-opacity="1" fill-rule="nonzero"/><path fill="#e7a1a7" d="M 626.496094 560.4375 L 78.875 560.4375 C 75.515625 560.4375 72.761719 557.6875 72.761719 554.324219 L 72.761719 513.011719 C 72.761719 509.652344 75.515625 506.898438 78.875 506.898438 L 626.496094 506.898438 C 629.859375 506.898438 632.609375 509.652344 632.609375 513.011719 L 632.609375 554.324219 C 632.609375 557.6875 629.859375 560.4375 626.496094 560.4375 Z M 626.496094 560.4375 " fill-opacity="1" fill-rule="nonzero"/><g clip-path="url(#6d18909475)"><g mask="url(#a3247bca7b)"><g transform="matrix(1, 0, 0, 1, 30, 155)"><g clip-path="url(#b8335e612d)"><g clip-path="url(#8c429da87e)"><path fill="#67595e" d="M 42.765625 112.085938 L 42.765625 9.65625 C 42.765625 4.605469 46.898438 0.472656 51.949219 0.472656 L 9.21875 0.472656 C 4.167969 0.472656 0.0351562 4.605469 0.0351562 9.65625 L 0.0351562 112.085938 C 0.0351562 117.136719 4.167969 121.269531 9.21875 121.269531 L 51.949219 121.269531 C 46.898438 121.269531 42.765625 117.136719 42.765625 112.085938 Z M 42.765625 112.085938 " fill-opacity="1" fill-rule="nonzero"/></g><g clip-path="url(#80b1b2b064)"><path fill="#67595e" d="M 51.949219 136.371094 L 9.21875 136.371094 C 4.167969 136.371094 0.0351562 140.503906 0.0351562 145.554688 L 0.0351562 248 C 0.0351562 253.050781 4.167969 257.183594 9.21875 257.183594 L 51.949219 257.183594 C 46.898438 257.183594 42.765625 253.050781 42.765625 248 L 42.765625 145.554688 C 42.765625 140.503906 46.898438 136.371094 51.949219 136.371094 Z M 51.949219 136.371094 " fill-opacity="1" fill-rule="nonzero"/></g><g clip-path="url(#2dd8c80b42)"><path fill="#67595e" d="M 48.878906 277.769531 L 6.144531 277.769531 C 2.785156 277.769531 0.0351562 280.519531 0.0351562 283.878906 L 0.0351562 325.195312 C 0.0351562 328.558594 2.785156 331.308594 6.144531 331.308594 L 48.878906 331.308594 C 45.515625 331.308594 42.765625 328.558594 42.765625 325.195312 L 42.765625 283.878906 C 42.765625 280.519531 45.515625 277.769531 48.878906 277.769531 Z M 48.878906 277.769531 " fill-opacity="1" fill-rule="nonzero"/></g><g clip-path="url(#06d77e999f)"><path fill="#67595e" d="M 48.878906 351.894531 L 6.144531 351.894531 C 2.785156 351.894531 0.0351562 354.644531 0.0351562 358.003906 L 0.0351562 399.320312 C 0.0351562 402.683594 2.785156 405.433594 6.144531 405.433594 L 48.878906 405.433594 C 45.515625 405.433594 42.765625 402.683594 42.765625 399.320312 L 42.765625 358.003906 C 42.765625 354.644531 45.515625 351.894531 48.878906 351.894531 Z M 48.878906 351.894531 " fill-opacity="1" fill-rule="nonzero"/></g></g></g></g></g><g clip-path="url(#86e0f505ea)"><path fill="#67595e" d="M 780.011719 434.078125 C 780.011719 437.628906 779.925781 441.175781 779.753906 444.71875 C 779.578125 448.265625 779.316406 451.804688 778.96875 455.335938 C 778.621094 458.871094 778.1875 462.390625 777.667969 465.902344 C 777.144531 469.414062 776.539062 472.910156 775.847656 476.390625 C 775.152344 479.871094 774.375 483.335938 773.515625 486.777344 C 772.652344 490.21875 771.703125 493.640625 770.675781 497.039062 C 769.644531 500.433594 768.53125 503.804688 767.335938 507.144531 C 766.140625 510.488281 764.863281 513.796875 763.503906 517.078125 C 762.144531 520.355469 760.707031 523.601562 759.191406 526.808594 C 757.671875 530.019531 756.078125 533.1875 754.402344 536.320312 C 752.730469 539.449219 750.980469 542.535156 749.15625 545.582031 C 747.332031 548.625 745.433594 551.625 743.460938 554.574219 C 741.488281 557.527344 739.445312 560.425781 737.332031 563.277344 C 735.21875 566.128906 733.035156 568.925781 730.78125 571.671875 C 728.53125 574.414062 726.210938 577.101562 723.828125 579.730469 C 721.445312 582.359375 719 584.929688 716.488281 587.441406 C 713.976562 589.949219 711.410156 592.398438 708.777344 594.78125 C 706.148438 597.164062 703.460938 599.484375 700.71875 601.734375 C 697.972656 603.988281 695.175781 606.167969 692.324219 608.285156 C 689.472656 610.398438 686.574219 612.441406 683.621094 614.414062 C 680.671875 616.386719 677.671875 618.285156 674.628906 620.109375 C 671.582031 621.933594 668.496094 623.683594 665.367188 625.355469 C 662.234375 627.03125 659.066406 628.625 655.855469 630.144531 C 652.648438 631.660156 649.402344 633.097656 646.125 634.457031 C 642.84375 635.816406 639.535156 637.09375 636.191406 638.289062 C 632.851562 639.484375 629.480469 640.597656 626.085938 641.628906 C 622.6875 642.65625 619.269531 643.605469 615.824219 644.464844 C 612.382812 645.328125 608.917969 646.105469 605.4375 646.796875 C 601.957031 647.492188 598.460938 648.097656 594.949219 648.617188 C 591.4375 649.140625 587.917969 649.574219 584.382812 649.921875 C 580.851562 650.269531 577.3125 650.53125 573.765625 650.703125 C 570.222656 650.878906 566.675781 650.964844 563.125 650.964844 C 559.574219 650.964844 556.027344 650.878906 552.484375 650.703125 C 548.9375 650.53125 545.398438 650.269531 541.867188 649.921875 C 538.335938 649.574219 534.8125 649.140625 531.300781 648.617188 C 527.789062 648.097656 524.292969 647.492188 520.8125 646.796875 C 517.332031 646.105469 513.867188 645.328125 510.425781 644.464844 C 506.984375 643.605469 503.5625 642.65625 500.164062 641.628906 C 496.769531 640.597656 493.398438 639.484375 490.058594 638.289062 C 486.714844 637.09375 483.40625 635.816406 480.125 634.457031 C 476.847656 633.097656 473.601562 631.660156 470.394531 630.140625 C 467.183594 628.625 464.015625 627.03125 460.886719 625.355469 C 457.753906 623.683594 454.667969 621.933594 451.621094 620.109375 C 448.578125 618.285156 445.578125 616.386719 442.628906 614.414062 C 439.675781 612.441406 436.777344 610.398438 433.925781 608.285156 C 431.074219 606.167969 428.277344 603.988281 425.53125 601.734375 C 422.789062 599.484375 420.101562 597.164062 417.472656 594.78125 C 414.84375 592.398438 412.273438 589.949219 409.761719 587.441406 C 407.253906 584.929688 404.804688 582.359375 402.421875 579.730469 C 400.039062 577.101562 397.71875 574.414062 395.46875 571.671875 C 393.214844 568.925781 391.035156 566.128906 388.917969 563.277344 C 386.804688 560.425781 384.761719 557.527344 382.789062 554.574219 C 380.816406 551.625 378.917969 548.625 377.09375 545.582031 C 375.269531 542.535156 373.519531 539.449219 371.847656 536.320312 C 370.171875 533.1875 368.578125 530.019531 367.0625 526.808594 C 365.542969 523.601562 364.105469 520.355469 362.746094 517.078125 C 361.386719 513.796875 360.109375 510.488281 358.914062 507.144531 C 357.71875 503.804688 356.605469 500.433594 355.574219 497.039062 C 354.546875 493.640625 353.597656 490.21875 352.738281 486.777344 C 351.875 483.335938 351.097656 479.871094 350.40625 476.390625 C 349.710938 472.910156 349.105469 469.414062 348.585938 465.902344 C 348.0625 462.390625 347.628906 458.871094 347.28125 455.335938 C 346.933594 451.804688 346.671875 448.265625 346.5 444.71875 C 346.324219 441.175781 346.238281 437.628906 346.238281 434.078125 C 346.238281 430.527344 346.324219 426.980469 346.5 423.4375 C 346.671875 419.890625 346.933594 416.351562 347.28125 412.820312 C 347.628906 409.285156 348.0625 405.765625 348.585938 402.253906 C 349.105469 398.742188 349.710938 395.246094 350.40625 391.765625 C 351.097656 388.285156 351.875 384.820312 352.738281 381.378906 C 353.597656 377.933594 354.546875 374.515625 355.574219 371.117188 C 356.605469 367.722656 357.71875 364.351562 358.914062 361.011719 C 360.109375 357.667969 361.386719 354.359375 362.746094 351.078125 C 364.105469 347.800781 365.542969 344.554688 367.0625 341.347656 C 368.578125 338.136719 370.171875 334.96875 371.847656 331.835938 C 373.519531 328.707031 375.269531 325.621094 377.09375 322.574219 C 378.917969 319.53125 380.816406 316.53125 382.789062 313.582031 C 384.761719 310.628906 386.804688 307.730469 388.917969 304.878906 C 391.035156 302.027344 393.214844 299.230469 395.46875 296.484375 C 397.71875 293.742188 400.039062 291.054688 402.421875 288.425781 C 404.804688 285.792969 407.253906 283.226562 409.761719 280.714844 C 412.273438 278.203125 414.84375 275.757812 417.472656 273.375 C 420.101562 270.992188 422.789062 268.671875 425.53125 266.421875 C 428.277344 264.167969 431.074219 261.984375 433.925781 259.871094 C 436.777344 257.757812 439.675781 255.714844 442.628906 253.742188 C 445.578125 251.769531 448.578125 249.871094 451.621094 248.046875 C 454.667969 246.222656 457.753906 244.472656 460.886719 242.800781 C 464.015625 241.125 467.183594 239.53125 470.394531 238.011719 C 473.601562 236.496094 476.847656 235.058594 480.125 233.699219 C 483.40625 232.339844 486.714844 231.0625 490.058594 229.867188 C 493.398438 228.671875 496.769531 227.558594 500.164062 226.527344 C 503.5625 225.5 506.984375 224.550781 510.425781 223.691406 C 513.867188 222.828125 517.332031 222.050781 520.8125 221.355469 C 524.292969 220.664062 527.789062 220.058594 531.300781 219.539062 C 534.8125 219.015625 538.335938 218.582031 541.867188 218.234375 C 545.398438 217.886719 548.9375 217.625 552.484375 217.449219 C 556.027344 217.277344 559.574219 217.191406 563.125 217.191406 C 566.675781 217.191406 570.222656 217.277344 573.765625 217.449219 C 577.3125 217.625 580.851562 217.886719 584.382812 218.234375 C 587.917969 218.582031 591.4375 219.015625 594.949219 219.539062 C 598.460938 220.058594 601.957031 220.664062 605.4375 221.355469 C 608.917969 222.050781 612.382812 222.828125 615.824219 223.691406 C 619.269531 224.550781 622.6875 225.5 626.085938 226.527344 C 629.480469 227.558594 632.851562 228.671875 636.191406 229.867188 C 639.535156 231.0625 642.84375 232.339844 646.125 233.699219 C 649.402344 235.058594 652.648438 236.496094 655.855469 238.011719 C 659.066406 239.53125 662.234375 241.125 665.367188 242.800781 C 668.496094 244.472656 671.582031 246.222656 674.628906 248.046875 C 677.671875 249.871094 680.671875 251.769531 683.621094 253.742188 C 686.574219 255.714844 689.472656 257.757812 692.324219 259.871094 C 695.175781 261.984375 697.972656 264.167969 700.71875 266.421875 C 703.460938 268.671875 706.148438 270.992188 708.777344 273.375 C 711.410156 275.757812 713.980469 278.203125 716.488281 280.714844 C 719 283.226562 721.445312 285.792969 723.828125 288.425781 C 726.210938 291.054688 728.53125 293.742188 730.78125 296.484375 C 733.035156 299.230469 735.21875 302.027344 737.332031 304.878906 C 739.445312 307.730469 741.488281 310.628906 743.460938 313.582031 C 745.433594 316.53125 747.332031 319.53125 749.15625 322.574219 C 750.980469 325.621094 752.730469 328.707031 754.402344 331.835938 C 756.078125 334.96875 757.671875 338.136719 759.191406 341.347656 C 760.707031 344.554688 762.144531 347.800781 763.503906 351.078125 C 764.863281 354.359375 766.140625 357.667969 767.335938 361.011719 C 768.53125 364.351562 769.644531 367.722656 770.675781 371.117188 C 771.703125 374.515625 772.652344 377.933594 773.511719 381.378906 C 774.375 384.820312 775.152344 388.285156 775.847656 391.765625 C 776.539062 395.246094 777.144531 398.742188 777.667969 402.253906 C 778.1875 405.765625 778.621094 409.285156 778.96875 412.820312 C 779.316406 416.351562 779.578125 419.890625 779.753906 423.4375 C 779.925781 426.980469 780.011719 430.527344 780.011719 434.078125 Z M 780.011719 434.078125 " fill-opacity="1" fill-rule="nonzero"/></g><path fill="#edd5d2" d="M 747.570312 404.148438 C 748.058594 407.167969 748.476562 410.195312 748.816406 413.234375 C 749.15625 416.273438 749.421875 419.320312 749.613281 422.371094 C 749.804688 425.425781 749.921875 428.480469 749.964844 431.535156 C 750.007812 434.59375 749.972656 437.652344 749.863281 440.707031 C 749.757812 443.761719 749.574219 446.816406 749.3125 449.863281 C 749.054688 452.910156 748.722656 455.949219 748.316406 458.980469 C 747.90625 462.011719 747.425781 465.027344 746.871094 468.035156 C 746.316406 471.042969 745.6875 474.035156 744.984375 477.011719 C 744.28125 479.988281 743.503906 482.945312 742.65625 485.882812 C 741.808594 488.820312 740.890625 491.734375 739.898438 494.628906 C 738.910156 497.523438 737.847656 500.390625 736.714844 503.230469 C 735.582031 506.070312 734.382812 508.882812 733.113281 511.664062 C 731.84375 514.445312 730.507812 517.195312 729.101562 519.910156 C 727.695312 522.628906 726.226562 525.308594 724.691406 527.953125 C 723.152344 530.597656 721.554688 533.199219 719.890625 535.765625 C 718.226562 538.332031 716.5 540.855469 714.710938 543.335938 C 712.921875 545.816406 711.074219 548.25 709.167969 550.640625 C 707.257812 553.03125 705.292969 555.375 703.269531 557.667969 C 701.25 559.960938 699.171875 562.203125 697.039062 564.394531 C 694.90625 566.585938 692.71875 568.722656 690.484375 570.808594 C 688.246094 572.894531 685.957031 574.921875 683.621094 576.894531 C 681.28125 578.863281 678.898438 580.777344 676.46875 582.632812 C 674.035156 584.488281 671.5625 586.28125 669.042969 588.015625 C 666.523438 589.75 663.960938 591.417969 661.359375 593.027344 C 658.757812 594.636719 656.121094 596.179688 653.441406 597.65625 C 650.765625 599.132812 648.054688 600.546875 645.308594 601.890625 C 642.5625 603.234375 639.785156 604.511719 636.976562 605.722656 C 634.164062 606.929688 631.328125 608.070312 628.464844 609.136719 C 625.597656 610.207031 622.710938 611.207031 619.796875 612.132812 C 616.882812 613.058594 613.945312 613.914062 610.988281 614.699219 C 608.035156 615.480469 605.0625 616.191406 602.070312 616.828125 C 599.078125 617.46875 596.074219 618.03125 593.054688 618.519531 C 590.035156 619.011719 587.007812 619.425781 583.96875 619.765625 C 580.929688 620.109375 577.886719 620.375 574.832031 620.566406 C 571.78125 620.757812 568.726562 620.875 565.667969 620.917969 C 562.609375 620.957031 559.554688 620.925781 556.496094 620.816406 C 553.441406 620.707031 550.390625 620.523438 547.34375 620.265625 C 544.296875 620.007812 541.257812 619.675781 538.226562 619.265625 C 535.195312 618.859375 532.175781 618.378906 529.167969 617.820312 C 526.160156 617.265625 523.171875 616.636719 520.195312 615.933594 C 517.21875 615.230469 514.261719 614.457031 511.324219 613.609375 C 508.382812 612.761719 505.46875 611.839844 502.574219 610.851562 C 499.683594 609.859375 496.816406 608.796875 493.976562 607.667969 C 491.132812 606.535156 488.324219 605.335938 485.539062 604.066406 C 482.757812 602.792969 480.007812 601.457031 477.292969 600.054688 C 474.578125 598.648438 471.898438 597.175781 469.253906 595.640625 C 466.609375 594.105469 464.003906 592.503906 461.4375 590.839844 C 458.871094 589.175781 456.347656 587.449219 453.867188 585.664062 C 451.386719 583.875 448.953125 582.027344 446.5625 580.117188 C 444.171875 578.210938 441.832031 576.246094 439.535156 574.222656 C 437.242188 572.199219 435 570.125 432.808594 567.992188 C 430.617188 565.859375 428.480469 563.671875 426.394531 561.433594 C 424.3125 559.195312 422.28125 556.910156 420.3125 554.574219 C 418.339844 552.234375 416.425781 549.851562 414.570312 547.417969 C 412.714844 544.988281 410.921875 542.511719 409.1875 539.992188 C 407.453125 537.476562 405.785156 534.914062 404.175781 532.3125 C 402.570312 529.710938 401.027344 527.074219 399.546875 524.394531 C 398.070312 521.71875 396.660156 519.007812 395.3125 516.261719 C 393.96875 513.515625 392.691406 510.738281 391.484375 507.925781 C 390.273438 505.117188 389.136719 502.28125 388.066406 499.417969 C 386.996094 496.550781 386 493.660156 385.070312 490.746094 C 384.144531 487.832031 383.289062 484.898438 382.503906 481.941406 C 381.722656 478.988281 381.011719 476.011719 380.375 473.023438 C 379.738281 470.03125 379.171875 467.027344 378.683594 464.007812 C 378.195312 460.988281 377.777344 457.960938 377.4375 454.921875 C 377.097656 451.882812 376.828125 448.839844 376.636719 445.785156 C 376.445312 442.734375 376.328125 439.679688 376.289062 436.621094 C 376.246094 433.5625 376.28125 430.507812 376.386719 427.449219 C 376.496094 424.394531 376.679688 421.34375 376.9375 418.296875 C 377.195312 415.25 377.53125 412.210938 377.9375 409.179688 C 378.34375 406.148438 378.828125 403.128906 379.382812 400.121094 C 379.9375 397.117188 380.566406 394.125 381.269531 391.148438 C 381.972656 388.171875 382.746094 385.214844 383.59375 382.277344 C 384.441406 379.339844 385.363281 376.421875 386.355469 373.53125 C 387.34375 370.636719 388.40625 367.769531 389.539062 364.929688 C 390.667969 362.085938 391.871094 359.277344 393.140625 356.496094 C 394.410156 353.710938 395.746094 350.964844 397.152344 348.246094 C 398.554688 345.53125 400.027344 342.851562 401.5625 340.207031 C 403.097656 337.5625 404.699219 334.957031 406.363281 332.390625 C 408.027344 329.828125 409.753906 327.304688 411.542969 324.824219 C 413.332031 322.34375 415.179688 319.90625 417.085938 317.515625 C 418.992188 315.125 420.957031 312.785156 422.980469 310.492188 C 425.003906 308.199219 427.082031 305.953125 429.214844 303.761719 C 431.347656 301.570312 433.53125 299.433594 435.769531 297.347656 C 438.007812 295.265625 440.296875 293.238281 442.632812 291.265625 C 444.96875 289.292969 447.355469 287.378906 449.785156 285.523438 C 452.214844 283.671875 454.691406 281.875 457.210938 280.140625 C 459.730469 278.410156 462.289062 276.738281 464.890625 275.132812 C 467.492188 273.523438 470.132812 271.980469 472.808594 270.503906 C 475.488281 269.023438 478.199219 267.613281 480.945312 266.269531 C 483.691406 264.921875 486.46875 263.644531 489.277344 262.4375 C 492.085938 261.230469 494.925781 260.089844 497.789062 259.019531 C 500.652344 257.953125 503.542969 256.953125 506.457031 256.027344 C 509.371094 255.097656 512.308594 254.242188 515.261719 253.460938 C 518.21875 252.675781 521.191406 251.964844 524.183594 251.328125 C 527.175781 250.691406 530.179688 250.128906 533.195312 249.636719 C 536.214844 249.148438 539.246094 248.730469 542.285156 248.390625 C 545.324219 248.050781 548.367188 247.785156 551.421875 247.59375 C 554.472656 247.402344 557.527344 247.285156 560.585938 247.242188 C 563.640625 247.199219 566.699219 247.234375 569.753906 247.34375 C 572.8125 247.453125 575.863281 247.632812 578.910156 247.894531 C 581.957031 248.152344 584.996094 248.484375 588.027344 248.890625 C 591.058594 249.300781 594.078125 249.78125 597.082031 250.335938 C 600.089844 250.890625 603.082031 251.519531 606.058594 252.222656 C 609.035156 252.925781 611.992188 253.703125 614.929688 254.550781 C 617.867188 255.398438 620.785156 256.316406 623.675781 257.308594 C 626.570312 258.296875 629.4375 259.359375 632.277344 260.492188 C 635.117188 261.625 637.929688 262.824219 640.710938 264.09375 C 643.496094 265.363281 646.242188 266.699219 648.960938 268.105469 C 651.675781 269.511719 654.355469 270.980469 657 272.515625 C 659.644531 274.054688 662.25 275.652344 664.816406 277.316406 C 667.378906 278.980469 669.902344 280.707031 672.382812 282.496094 C 674.863281 284.285156 677.300781 286.132812 679.691406 288.039062 C 682.082031 289.945312 684.421875 291.914062 686.714844 293.933594 C 689.007812 295.957031 691.253906 298.035156 693.445312 300.167969 C 695.636719 302.300781 697.773438 304.484375 699.859375 306.722656 C 701.941406 308.960938 703.96875 311.25 705.941406 313.585938 C 707.914062 315.921875 709.828125 318.308594 711.683594 320.738281 C 713.539062 323.167969 715.332031 325.644531 717.066406 328.164062 C 718.796875 330.683594 720.46875 333.242188 722.078125 335.84375 C 723.683594 338.445312 725.226562 341.085938 726.703125 343.761719 C 728.183594 346.441406 729.59375 349.152344 730.941406 351.898438 C 732.285156 354.644531 733.5625 357.421875 734.769531 360.230469 C 735.976562 363.039062 737.117188 365.878906 738.1875 368.742188 C 739.257812 371.605469 740.253906 374.496094 741.183594 377.410156 C 742.109375 380.324219 742.964844 383.257812 743.746094 386.214844 C 744.53125 389.171875 745.242188 392.144531 745.878906 395.136719 C 746.515625 398.125 747.078125 401.132812 747.570312 404.148438 Z M 747.570312 404.148438 " fill-opacity="1" fill-rule="nonzero"/><path fill="#67595e" d="M 568.367188 286.375 C 568.367188 286.890625 568.316406 287.402344 568.21875 287.910156 C 568.117188 288.414062 567.96875 288.90625 567.769531 289.382812 C 567.570312 289.859375 567.328125 290.316406 567.042969 290.742188 C 566.753906 291.171875 566.429688 291.570312 566.0625 291.9375 C 565.699219 292.300781 565.300781 292.628906 564.871094 292.914062 C 564.441406 293.199219 563.988281 293.445312 563.511719 293.640625 C 563.035156 293.839844 562.542969 293.988281 562.035156 294.089844 C 561.53125 294.1875 561.019531 294.238281 560.503906 294.238281 C 559.984375 294.238281 559.472656 294.1875 558.96875 294.089844 C 558.460938 293.988281 557.96875 293.839844 557.492188 293.640625 C 557.015625 293.445312 556.5625 293.199219 556.132812 292.914062 C 555.703125 292.628906 555.304688 292.300781 554.941406 291.9375 C 554.574219 291.570312 554.25 291.171875 553.960938 290.742188 C 553.675781 290.316406 553.433594 289.859375 553.234375 289.382812 C 553.039062 288.90625 552.886719 288.414062 552.789062 287.910156 C 552.6875 287.402344 552.636719 286.890625 552.636719 286.375 C 552.636719 285.855469 552.6875 285.347656 552.789062 284.839844 C 552.886719 284.332031 553.039062 283.839844 553.234375 283.363281 C 553.433594 282.886719 553.675781 282.433594 553.960938 282.003906 C 554.25 281.574219 554.574219 281.175781 554.941406 280.8125 C 555.304688 280.445312 555.703125 280.121094 556.132812 279.832031 C 556.5625 279.546875 557.015625 279.304688 557.492188 279.105469 C 557.96875 278.910156 558.460938 278.757812 558.96875 278.660156 C 559.472656 278.558594 559.984375 278.507812 560.503906 278.507812 C 561.019531 278.507812 561.53125 278.558594 562.035156 278.660156 C 562.542969 278.757812 563.035156 278.910156 563.511719 279.105469 C 563.988281 279.304688 564.441406 279.546875 564.871094 279.832031 C 565.300781 280.121094 565.699219 280.445312 566.0625 280.8125 C 566.429688 281.175781 566.753906 281.574219 567.042969 282.003906 C 567.328125 282.433594 567.570312 282.886719 567.769531 283.363281 C 567.96875 283.839844 568.117188 284.332031 568.21875 284.839844 C 568.316406 285.347656 568.367188 285.855469 568.367188 286.375 Z M 568.367188 286.375 " fill-opacity="1" fill-rule="nonzero"/><path fill="#67595e" d="M 568.367188 286.375 C 568.367188 286.890625 568.316406 287.402344 568.21875 287.910156 C 568.117188 288.414062 567.96875 288.90625 567.769531 289.382812 C 567.570312 289.859375 567.328125 290.316406 567.042969 290.742188 C 566.753906 291.171875 566.429688 291.570312 566.0625 291.9375 C 565.699219 292.300781 565.300781 292.628906 564.871094 292.914062 C 564.441406 293.199219 563.988281 293.445312 563.511719 293.640625 C 563.035156 293.839844 562.542969 293.988281 562.035156 294.089844 C 561.53125 294.1875 561.019531 294.238281 560.503906 294.238281 C 559.984375 294.238281 559.472656 294.1875 558.96875 294.089844 C 558.460938 293.988281 557.96875 293.839844 557.492188 293.640625 C 557.015625 293.445312 556.5625 293.199219 556.132812 292.914062 C 555.703125 292.628906 555.304688 292.300781 554.941406 291.9375 C 554.574219 291.570312 554.25 291.171875 553.960938 290.742188 C 553.675781 290.316406 553.433594 289.859375 553.234375 289.382812 C 553.039062 288.90625 552.886719 288.414062 552.789062 287.910156 C 552.6875 287.402344 552.636719 286.890625 552.636719 286.375 C 552.636719 285.855469 552.6875 285.347656 552.789062 284.839844 C 552.886719 284.332031 553.039062 283.839844 553.234375 283.363281 C 553.433594 282.886719 553.675781 282.433594 553.960938 282.003906 C 554.25 281.574219 554.574219 281.175781 554.941406 280.8125 C 555.304688 280.445312 555.703125 280.121094 556.132812 279.832031 C 556.5625 279.546875 557.015625 279.304688 557.492188 279.105469 C 557.96875 278.910156 558.460938 278.757812 558.96875 278.660156 C 559.472656 278.558594 559.984375 278.507812 560.503906 278.507812 C 561.019531 278.507812 561.53125 278.558594 562.035156 278.660156 C 562.542969 278.757812 563.035156 278.910156 563.511719 279.105469 C 563.988281 279.304688 564.441406 279.546875 564.871094 279.832031 C 565.300781 280.121094 565.699219 280.445312 566.0625 280.8125 C 566.429688 281.175781 566.753906 281.574219 567.042969 282.003906 C 567.328125 282.433594 567.570312 282.886719 567.769531 283.363281 C 567.96875 283.839844 568.117188 284.332031 568.21875 284.839844 C 568.316406 285.347656 568.367188 285.855469 568.367188 286.375 Z M 568.367188 286.375 " fill-opacity="1" fill-rule="nonzero"/><path fill="#67595e" d="M 494.867188 307.472656 C 494.867188 307.992188 494.816406 308.503906 494.714844 309.007812 C 494.617188 309.515625 494.464844 310.007812 494.269531 310.484375 C 494.070312 310.960938 493.828125 311.414062 493.542969 311.84375 C 493.253906 312.273438 492.929688 312.671875 492.5625 313.035156 C 492.199219 313.402344 491.800781 313.726562 491.371094 314.015625 C 490.941406 314.300781 490.488281 314.542969 490.011719 314.742188 C 489.535156 314.9375 489.042969 315.089844 488.535156 315.1875 C 488.03125 315.289062 487.519531 315.339844 487 315.339844 C 486.484375 315.339844 485.972656 315.289062 485.46875 315.1875 C 484.960938 315.089844 484.46875 314.9375 483.992188 314.742188 C 483.515625 314.542969 483.0625 314.300781 482.632812 314.015625 C 482.203125 313.726562 481.804688 313.402344 481.441406 313.035156 C 481.074219 312.671875 480.75 312.273438 480.460938 311.84375 C 480.175781 311.414062 479.933594 310.960938 479.734375 310.484375 C 479.535156 310.007812 479.386719 309.515625 479.285156 309.007812 C 479.1875 308.503906 479.136719 307.992188 479.136719 307.472656 C 479.136719 306.957031 479.1875 306.445312 479.285156 305.941406 C 479.386719 305.433594 479.535156 304.941406 479.734375 304.464844 C 479.933594 303.988281 480.175781 303.535156 480.460938 303.105469 C 480.75 302.675781 481.074219 302.277344 481.441406 301.910156 C 481.804688 301.546875 482.203125 301.222656 482.632812 300.933594 C 483.0625 300.648438 483.515625 300.40625 483.992188 300.207031 C 484.46875 300.007812 484.960938 299.859375 485.46875 299.757812 C 485.972656 299.660156 486.484375 299.609375 487 299.609375 C 487.519531 299.609375 488.03125 299.660156 488.535156 299.757812 C 489.042969 299.859375 489.535156 300.007812 490.011719 300.207031 C 490.488281 300.40625 490.941406 300.648438 491.371094 300.933594 C 491.800781 301.222656 492.199219 301.546875 492.5625 301.910156 C 492.929688 302.277344 493.253906 302.675781 493.542969 303.105469 C 493.828125 303.535156 494.070312 303.988281 494.269531 304.464844 C 494.464844 304.941406 494.617188 305.433594 494.714844 305.941406 C 494.816406 306.445312 494.867188 306.957031 494.867188 307.472656 Z M 494.867188 307.472656 " fill-opacity="1" fill-rule="nonzero"/><path fill="#67595e" d="M 441.765625 362.496094 C 441.765625 363.011719 441.714844 363.523438 441.613281 364.03125 C 441.511719 364.535156 441.363281 365.027344 441.164062 365.507812 C 440.96875 365.984375 440.726562 366.4375 440.4375 366.867188 C 440.152344 367.296875 439.824219 367.691406 439.460938 368.058594 C 439.09375 368.421875 438.699219 368.75 438.269531 369.035156 C 437.839844 369.324219 437.386719 369.566406 436.910156 369.761719 C 436.429688 369.960938 435.941406 370.109375 435.433594 370.210938 C 434.925781 370.3125 434.414062 370.363281 433.898438 370.363281 C 433.382812 370.363281 432.871094 370.3125 432.363281 370.210938 C 431.855469 370.109375 431.367188 369.960938 430.886719 369.761719 C 430.410156 369.566406 429.957031 369.324219 429.527344 369.035156 C 429.097656 368.75 428.703125 368.421875 428.335938 368.058594 C 427.972656 367.691406 427.644531 367.296875 427.359375 366.867188 C 427.070312 366.4375 426.828125 365.984375 426.632812 365.507812 C 426.433594 365.027344 426.285156 364.535156 426.183594 364.03125 C 426.082031 363.523438 426.03125 363.011719 426.03125 362.496094 C 426.03125 361.980469 426.082031 361.46875 426.183594 360.960938 C 426.285156 360.453125 426.433594 359.964844 426.632812 359.484375 C 426.828125 359.007812 427.070312 358.554688 427.359375 358.125 C 427.644531 357.695312 427.972656 357.300781 428.335938 356.933594 C 428.703125 356.570312 429.097656 356.242188 429.527344 355.957031 C 429.957031 355.667969 430.410156 355.425781 430.886719 355.230469 C 431.367188 355.03125 431.855469 354.882812 432.363281 354.78125 C 432.871094 354.679688 433.382812 354.628906 433.898438 354.628906 C 434.414062 354.628906 434.925781 354.679688 435.433594 354.78125 C 435.941406 354.882812 436.429688 355.03125 436.910156 355.230469 C 437.386719 355.425781 437.839844 355.667969 438.269531 355.957031 C 438.699219 356.242188 439.09375 356.570312 439.460938 356.933594 C 439.824219 357.300781 440.152344 357.695312 440.4375 358.125 C 440.726562 358.554688 440.96875 359.007812 441.164062 359.484375 C 441.363281 359.964844 441.511719 360.453125 441.613281 360.960938 C 441.714844 361.46875 441.765625 361.980469 441.765625 362.496094 Z M 441.765625 362.496094 " fill-opacity="1" fill-rule="nonzero"/><path fill="#67595e" d="M 423.285156 436.699219 C 423.285156 437.214844 423.234375 437.726562 423.132812 438.234375 C 423.035156 438.742188 422.882812 439.234375 422.6875 439.710938 C 422.488281 440.1875 422.246094 440.640625 421.960938 441.070312 C 421.671875 441.5 421.347656 441.894531 420.980469 442.261719 C 420.617188 442.625 420.21875 442.953125 419.789062 443.238281 C 419.359375 443.527344 418.90625 443.769531 418.429688 443.964844 C 417.953125 444.164062 417.460938 444.3125 416.953125 444.414062 C 416.449219 444.515625 415.9375 444.566406 415.417969 444.566406 C 414.902344 444.566406 414.390625 444.515625 413.886719 444.414062 C 413.378906 444.3125 412.886719 444.164062 412.410156 443.964844 C 411.933594 443.769531 411.480469 443.527344 411.050781 443.238281 C 410.621094 442.953125 410.222656 442.625 409.855469 442.261719 C 409.492188 441.894531 409.167969 441.5 408.878906 441.070312 C 408.59375 440.640625 408.351562 440.1875 408.152344 439.710938 C 407.953125 439.234375 407.804688 438.742188 407.703125 438.234375 C 407.605469 437.726562 407.554688 437.214844 407.554688 436.699219 C 407.554688 436.183594 407.605469 435.671875 407.703125 435.164062 C 407.804688 434.660156 407.953125 434.167969 408.152344 433.6875 C 408.351562 433.210938 408.59375 432.757812 408.878906 432.328125 C 409.167969 431.898438 409.492188 431.503906 409.855469 431.136719 C 410.222656 430.773438 410.621094 430.445312 411.050781 430.160156 C 411.480469 429.871094 411.933594 429.628906 412.410156 429.433594 C 412.886719 429.234375 413.378906 429.085938 413.886719 428.984375 C 414.390625 428.882812 414.902344 428.832031 415.417969 428.832031 C 415.9375 428.832031 416.449219 428.882812 416.953125 428.984375 C 417.460938 429.085938 417.953125 429.234375 418.429688 429.433594 C 418.90625 429.628906 419.359375 429.871094 419.789062 430.160156 C 420.21875 430.445312 420.617188 430.773438 420.980469 431.136719 C 421.347656 431.503906 421.671875 431.898438 421.960938 432.328125 C 422.246094 432.757812 422.488281 433.210938 422.6875 433.6875 C 422.882812 434.167969 423.035156 434.660156 423.132812 435.164062 C 423.234375 435.671875 423.285156 436.183594 423.285156 436.699219 Z M 423.285156 436.699219 " fill-opacity="1" fill-rule="nonzero"/><path fill="#67595e" d="M 444.386719 510.203125 C 444.386719 510.71875 444.335938 511.230469 444.234375 511.734375 C 444.132812 512.242188 443.984375 512.734375 443.785156 513.210938 C 443.589844 513.6875 443.347656 514.140625 443.058594 514.570312 C 442.773438 515 442.445312 515.398438 442.082031 515.765625 C 441.714844 516.128906 441.320312 516.457031 440.890625 516.742188 C 440.460938 517.027344 440.007812 517.269531 439.53125 517.46875 C 439.054688 517.667969 438.5625 517.816406 438.054688 517.917969 C 437.546875 518.015625 437.035156 518.066406 436.519531 518.066406 C 436.003906 518.066406 435.492188 518.015625 434.984375 517.917969 C 434.480469 517.816406 433.988281 517.667969 433.507812 517.46875 C 433.03125 517.269531 432.578125 517.027344 432.148438 516.742188 C 431.71875 516.457031 431.324219 516.128906 430.957031 515.765625 C 430.59375 515.398438 430.265625 515 429.980469 514.570312 C 429.691406 514.140625 429.449219 513.6875 429.253906 513.210938 C 429.054688 512.734375 428.90625 512.242188 428.804688 511.734375 C 428.703125 511.230469 428.652344 510.71875 428.652344 510.203125 C 428.652344 509.683594 428.703125 509.171875 428.804688 508.667969 C 428.90625 508.160156 429.054688 507.667969 429.253906 507.191406 C 429.449219 506.714844 429.691406 506.261719 429.980469 505.832031 C 430.265625 505.402344 430.59375 505.003906 430.957031 504.640625 C 431.324219 504.273438 431.71875 503.949219 432.148438 503.660156 C 432.578125 503.375 433.03125 503.132812 433.507812 502.933594 C 433.988281 502.738281 434.480469 502.585938 434.984375 502.488281 C 435.492188 502.386719 436.003906 502.335938 436.519531 502.335938 C 437.035156 502.335938 437.546875 502.386719 438.054688 502.488281 C 438.5625 502.585938 439.054688 502.738281 439.53125 502.933594 C 440.007812 503.132812 440.460938 503.375 440.890625 503.660156 C 441.320312 503.949219 441.714844 504.273438 442.082031 504.640625 C 442.445312 505.003906 442.773438 505.402344 443.058594 505.832031 C 443.347656 506.261719 443.589844 506.714844 443.785156 507.191406 C 443.984375 507.667969 444.132812 508.160156 444.234375 508.667969 C 444.335938 509.171875 444.386719 509.683594 444.386719 510.203125 Z M 444.386719 510.203125 " fill-opacity="1" fill-rule="nonzero"/><path fill="#67595e" d="M 499.410156 563.304688 C 499.410156 563.820312 499.359375 564.332031 499.257812 564.839844 C 499.15625 565.347656 499.007812 565.835938 498.8125 566.316406 C 498.613281 566.792969 498.371094 567.246094 498.082031 567.675781 C 497.796875 568.105469 497.46875 568.5 497.105469 568.867188 C 496.742188 569.230469 496.34375 569.558594 495.914062 569.84375 C 495.484375 570.132812 495.03125 570.375 494.554688 570.570312 C 494.078125 570.769531 493.585938 570.917969 493.078125 571.019531 C 492.570312 571.121094 492.058594 571.171875 491.542969 571.171875 C 491.027344 571.171875 490.515625 571.121094 490.007812 571.019531 C 489.503906 570.917969 489.011719 570.769531 488.53125 570.570312 C 488.054688 570.375 487.601562 570.132812 487.171875 569.84375 C 486.742188 569.558594 486.347656 569.230469 485.980469 568.867188 C 485.617188 568.5 485.289062 568.105469 485.003906 567.675781 C 484.714844 567.246094 484.472656 566.792969 484.277344 566.316406 C 484.078125 565.835938 483.929688 565.347656 483.828125 564.839844 C 483.726562 564.332031 483.675781 563.820312 483.675781 563.304688 C 483.675781 562.789062 483.726562 562.277344 483.828125 561.769531 C 483.929688 561.261719 484.078125 560.773438 484.277344 560.292969 C 484.472656 559.816406 484.714844 559.363281 485.003906 558.933594 C 485.289062 558.503906 485.617188 558.109375 485.980469 557.742188 C 486.347656 557.378906 486.742188 557.050781 487.171875 556.765625 C 487.601562 556.476562 488.054688 556.234375 488.53125 556.039062 C 489.011719 555.839844 489.503906 555.691406 490.007812 555.589844 C 490.515625 555.488281 491.027344 555.4375 491.542969 555.4375 C 492.058594 555.4375 492.570312 555.488281 493.078125 555.589844 C 493.585938 555.691406 494.078125 555.839844 494.554688 556.039062 C 495.03125 556.234375 495.484375 556.476562 495.914062 556.765625 C 496.34375 557.050781 496.738281 557.378906 497.105469 557.742188 C 497.46875 558.109375 497.796875 558.503906 498.082031 558.933594 C 498.371094 559.363281 498.613281 559.816406 498.808594 560.292969 C 499.007812 560.773438 499.15625 561.261719 499.257812 561.769531 C 499.359375 562.277344 499.410156 562.789062 499.410156 563.304688 Z M 499.410156 563.304688 " fill-opacity="1" fill-rule="nonzero"/><path fill="#67595e" d="M 573.613281 581.78125 C 573.613281 582.296875 573.5625 582.808594 573.460938 583.316406 C 573.359375 583.824219 573.210938 584.316406 573.015625 584.792969 C 572.816406 585.269531 572.574219 585.722656 572.289062 586.152344 C 572 586.582031 571.675781 586.980469 571.308594 587.34375 C 570.945312 587.710938 570.546875 588.035156 570.117188 588.324219 C 569.6875 588.609375 569.234375 588.851562 568.757812 589.050781 C 568.28125 589.246094 567.789062 589.394531 567.28125 589.496094 C 566.773438 589.597656 566.261719 589.648438 565.746094 589.648438 C 565.230469 589.648438 564.71875 589.597656 564.210938 589.496094 C 563.707031 589.394531 563.214844 589.246094 562.738281 589.050781 C 562.257812 588.851562 561.804688 588.609375 561.375 588.324219 C 560.945312 588.035156 560.550781 587.710938 560.183594 587.34375 C 559.820312 586.980469 559.492188 586.582031 559.207031 586.152344 C 558.917969 585.722656 558.675781 585.269531 558.480469 584.792969 C 558.28125 584.316406 558.132812 583.824219 558.03125 583.316406 C 557.929688 582.808594 557.878906 582.296875 557.878906 581.78125 C 557.878906 581.265625 557.929688 580.753906 558.03125 580.246094 C 558.132812 579.742188 558.28125 579.25 558.480469 578.773438 C 558.675781 578.292969 558.917969 577.839844 559.207031 577.410156 C 559.492188 576.984375 559.820312 576.585938 560.183594 576.21875 C 560.550781 575.855469 560.945312 575.527344 561.375 575.242188 C 561.804688 574.953125 562.257812 574.710938 562.738281 574.515625 C 563.214844 574.316406 563.707031 574.167969 564.210938 574.066406 C 564.71875 573.964844 565.230469 573.917969 565.746094 573.917969 C 566.261719 573.917969 566.773438 573.964844 567.28125 574.066406 C 567.789062 574.167969 568.28125 574.316406 568.757812 574.515625 C 569.234375 574.710938 569.6875 574.953125 570.117188 575.242188 C 570.546875 575.527344 570.945312 575.855469 571.308594 576.21875 C 571.675781 576.585938 572 576.984375 572.285156 577.410156 C 572.574219 577.839844 572.816406 578.292969 573.015625 578.773438 C 573.210938 579.25 573.359375 579.742188 573.460938 580.246094 C 573.5625 580.753906 573.613281 581.265625 573.613281 581.78125 Z M 573.613281 581.78125 " fill-opacity="1" fill-rule="nonzero"/><path fill="#67595e" d="M 647.113281 560.683594 C 647.113281 561.199219 647.0625 561.710938 646.960938 562.21875 C 646.863281 562.722656 646.710938 563.214844 646.515625 563.695312 C 646.316406 564.171875 646.074219 564.625 645.789062 565.054688 C 645.5 565.484375 645.175781 565.878906 644.808594 566.246094 C 644.445312 566.609375 644.046875 566.9375 643.617188 567.222656 C 643.1875 567.511719 642.734375 567.753906 642.257812 567.949219 C 641.78125 568.148438 641.289062 568.296875 640.78125 568.398438 C 640.277344 568.5 639.765625 568.550781 639.246094 568.550781 C 638.730469 568.550781 638.21875 568.5 637.710938 568.398438 C 637.207031 568.296875 636.714844 568.148438 636.238281 567.949219 C 635.761719 567.753906 635.308594 567.511719 634.878906 567.222656 C 634.449219 566.9375 634.050781 566.609375 633.683594 566.246094 C 633.320312 565.878906 632.992188 565.484375 632.707031 565.054688 C 632.421875 564.625 632.179688 564.171875 631.980469 563.695312 C 631.78125 563.214844 631.632812 562.722656 631.53125 562.21875 C 631.433594 561.710938 631.382812 561.199219 631.382812 560.683594 C 631.382812 560.167969 631.433594 559.65625 631.53125 559.148438 C 631.632812 558.640625 631.78125 558.148438 631.980469 557.671875 C 632.179688 557.195312 632.421875 556.742188 632.707031 556.3125 C 632.992188 555.882812 633.320312 555.488281 633.683594 555.121094 C 634.050781 554.757812 634.449219 554.429688 634.878906 554.144531 C 635.308594 553.855469 635.761719 553.613281 636.238281 553.417969 C 636.714844 553.21875 637.207031 553.070312 637.710938 552.96875 C 638.21875 552.867188 638.730469 552.816406 639.246094 552.816406 C 639.765625 552.816406 640.277344 552.867188 640.78125 552.96875 C 641.289062 553.070312 641.78125 553.21875 642.257812 553.417969 C 642.734375 553.613281 643.1875 553.855469 643.617188 554.144531 C 644.046875 554.429688 644.445312 554.757812 644.808594 555.121094 C 645.175781 555.488281 645.5 555.882812 645.789062 556.3125 C 646.074219 556.742188 646.316406 557.195312 646.515625 557.671875 C 646.710938 558.148438 646.863281 558.640625 646.960938 559.148438 C 647.0625 559.65625 647.113281 560.167969 647.113281 560.683594 Z M 647.113281 560.683594 " fill-opacity="1" fill-rule="nonzero"/><path fill="#67595e" d="M 700.21875 505.660156 C 700.21875 506.175781 700.167969 506.6875 700.066406 507.195312 C 699.964844 507.699219 699.816406 508.191406 699.621094 508.671875 C 699.421875 509.148438 699.179688 509.601562 698.894531 510.03125 C 698.605469 510.460938 698.28125 510.855469 697.914062 511.222656 C 697.550781 511.585938 697.152344 511.914062 696.722656 512.199219 C 696.292969 512.488281 695.839844 512.730469 695.363281 512.925781 C 694.886719 513.125 694.394531 513.273438 693.886719 513.375 C 693.378906 513.476562 692.867188 513.527344 692.351562 513.527344 C 691.835938 513.527344 691.324219 513.476562 690.816406 513.375 C 690.3125 513.273438 689.820312 513.125 689.34375 512.925781 C 688.863281 512.730469 688.410156 512.488281 687.980469 512.199219 C 687.550781 511.914062 687.15625 511.585938 686.789062 511.222656 C 686.425781 510.855469 686.097656 510.460938 685.8125 510.03125 C 685.523438 509.601562 685.28125 509.148438 685.085938 508.671875 C 684.886719 508.191406 684.738281 507.699219 684.636719 507.195312 C 684.535156 506.6875 684.484375 506.175781 684.484375 505.660156 C 684.484375 505.144531 684.535156 504.632812 684.636719 504.125 C 684.738281 503.617188 684.886719 503.128906 685.085938 502.648438 C 685.28125 502.171875 685.523438 501.71875 685.8125 501.289062 C 686.097656 500.859375 686.425781 500.464844 686.789062 500.097656 C 687.15625 499.734375 687.550781 499.40625 687.980469 499.121094 C 688.410156 498.832031 688.863281 498.589844 689.34375 498.394531 C 689.820312 498.195312 690.3125 498.046875 690.816406 497.945312 C 691.324219 497.84375 691.835938 497.792969 692.351562 497.792969 C 692.867188 497.792969 693.378906 497.84375 693.886719 497.945312 C 694.394531 498.046875 694.886719 498.195312 695.363281 498.394531 C 695.839844 498.589844 696.292969 498.832031 696.722656 499.121094 C 697.152344 499.40625 697.550781 499.734375 697.914062 500.097656 C 698.28125 500.464844 698.605469 500.859375 698.894531 501.289062 C 699.179688 501.71875 699.421875 502.171875 699.621094 502.648438 C 699.816406 503.128906 699.964844 503.617188 700.066406 504.125 C 700.167969 504.632812 700.21875 505.144531 700.21875 505.660156 Z M 700.21875 505.660156 " fill-opacity="1" fill-rule="nonzero"/><path fill="#67595e" d="M 718.695312 431.457031 C 718.695312 431.972656 718.644531 432.484375 718.542969 432.992188 C 718.445312 433.496094 718.292969 433.988281 718.097656 434.464844 C 717.898438 434.945312 717.65625 435.398438 717.371094 435.828125 C 717.082031 436.257812 716.757812 436.652344 716.390625 437.019531 C 716.027344 437.382812 715.628906 437.710938 715.199219 437.996094 C 714.769531 438.285156 714.316406 438.527344 713.839844 438.722656 C 713.363281 438.921875 712.871094 439.070312 712.363281 439.171875 C 711.859375 439.273438 711.347656 439.324219 710.828125 439.324219 C 710.3125 439.324219 709.800781 439.273438 709.292969 439.171875 C 708.789062 439.070312 708.296875 438.921875 707.820312 438.722656 C 707.34375 438.527344 706.890625 438.285156 706.460938 437.996094 C 706.03125 437.710938 705.632812 437.382812 705.265625 437.019531 C 704.902344 436.652344 704.574219 436.257812 704.289062 435.828125 C 704.003906 435.398438 703.761719 434.945312 703.5625 434.464844 C 703.363281 433.988281 703.214844 433.496094 703.113281 432.992188 C 703.015625 432.484375 702.964844 431.972656 702.964844 431.457031 C 702.964844 430.941406 703.015625 430.429688 703.113281 429.921875 C 703.214844 429.414062 703.363281 428.921875 703.5625 428.445312 C 703.761719 427.96875 704.003906 427.515625 704.289062 427.085938 C 704.574219 426.65625 704.902344 426.257812 705.265625 425.894531 C 705.632812 425.527344 706.03125 425.203125 706.460938 424.917969 C 706.890625 424.628906 707.34375 424.386719 707.820312 424.1875 C 708.296875 423.992188 708.789062 423.84375 709.292969 423.742188 C 709.800781 423.640625 710.3125 423.589844 710.828125 423.589844 C 711.347656 423.589844 711.859375 423.640625 712.363281 423.742188 C 712.871094 423.84375 713.363281 423.992188 713.839844 424.1875 C 714.316406 424.386719 714.769531 424.628906 715.199219 424.917969 C 715.628906 425.203125 716.027344 425.527344 716.390625 425.894531 C 716.757812 426.257812 717.082031 426.65625 717.371094 427.085938 C 717.65625 427.515625 717.898438 427.96875 718.097656 428.445312 C 718.292969 428.921875 718.445312 429.414062 718.542969 429.921875 C 718.644531 430.429688 718.695312 430.941406 718.695312 431.457031 Z M 718.695312 431.457031 " fill-opacity="1" fill-rule="nonzero"/><path fill="#67595e" d="M 697.59375 357.957031 C 697.59375 358.472656 697.542969 358.984375 697.445312 359.492188 C 697.34375 359.996094 697.195312 360.488281 696.996094 360.964844 C 696.796875 361.441406 696.554688 361.898438 696.269531 362.324219 C 695.984375 362.753906 695.65625 363.152344 695.292969 363.519531 C 694.925781 363.882812 694.527344 364.210938 694.097656 364.496094 C 693.667969 364.78125 693.214844 365.027344 692.738281 365.222656 C 692.261719 365.421875 691.769531 365.570312 691.265625 365.671875 C 690.757812 365.769531 690.246094 365.820312 689.730469 365.820312 C 689.210938 365.820312 688.699219 365.769531 688.195312 365.671875 C 687.6875 365.570312 687.195312 365.421875 686.71875 365.222656 C 686.242188 365.027344 685.789062 364.78125 685.359375 364.496094 C 684.929688 364.210938 684.53125 363.882812 684.167969 363.519531 C 683.800781 363.152344 683.476562 362.753906 683.1875 362.324219 C 682.902344 361.898438 682.660156 361.441406 682.460938 360.964844 C 682.265625 360.488281 682.113281 359.996094 682.015625 359.492188 C 681.914062 358.984375 681.863281 358.472656 681.863281 357.957031 C 681.863281 357.4375 681.914062 356.929688 682.015625 356.421875 C 682.113281 355.914062 682.265625 355.421875 682.460938 354.945312 C 682.660156 354.46875 682.902344 354.015625 683.1875 353.585938 C 683.476562 353.15625 683.800781 352.757812 684.167969 352.394531 C 684.53125 352.027344 684.929688 351.703125 685.359375 351.414062 C 685.789062 351.128906 686.242188 350.886719 686.71875 350.6875 C 687.195312 350.492188 687.6875 350.339844 688.195312 350.242188 C 688.699219 350.140625 689.210938 350.089844 689.730469 350.089844 C 690.246094 350.089844 690.757812 350.140625 691.265625 350.242188 C 691.769531 350.339844 692.261719 350.492188 692.738281 350.6875 C 693.214844 350.886719 693.667969 351.128906 694.097656 351.414062 C 694.527344 351.703125 694.925781 352.027344 695.292969 352.394531 C 695.65625 352.757812 695.984375 353.15625 696.269531 353.585938 C 696.554688 354.015625 696.796875 354.46875 696.996094 354.945312 C 697.195312 355.421875 697.34375 355.914062 697.445312 356.421875 C 697.542969 356.929688 697.59375 357.4375 697.59375 357.957031 Z M 697.59375 357.957031 " fill-opacity="1" fill-rule="nonzero"/><path fill="#67595e" d="M 642.570312 304.851562 C 642.570312 305.367188 642.519531 305.878906 642.421875 306.386719 C 642.320312 306.890625 642.171875 307.382812 641.972656 307.859375 C 641.773438 308.339844 641.53125 308.792969 641.246094 309.222656 C 640.960938 309.652344 640.632812 310.046875 640.269531 310.414062 C 639.902344 310.777344 639.503906 311.105469 639.074219 311.390625 C 638.644531 311.679688 638.191406 311.921875 637.714844 312.117188 C 637.238281 312.316406 636.746094 312.464844 636.242188 312.566406 C 635.734375 312.667969 635.222656 312.71875 634.707031 312.71875 C 634.1875 312.71875 633.679688 312.667969 633.171875 312.566406 C 632.664062 312.464844 632.171875 312.316406 631.695312 312.117188 C 631.21875 311.921875 630.765625 311.679688 630.335938 311.390625 C 629.90625 311.105469 629.507812 310.777344 629.144531 310.414062 C 628.777344 310.046875 628.453125 309.652344 628.164062 309.222656 C 627.878906 308.792969 627.636719 308.339844 627.4375 307.859375 C 627.242188 307.382812 627.089844 306.890625 626.992188 306.386719 C 626.890625 305.878906 626.839844 305.367188 626.839844 304.851562 C 626.839844 304.335938 626.890625 303.824219 626.992188 303.316406 C 627.089844 302.808594 627.242188 302.316406 627.4375 301.839844 C 627.636719 301.363281 627.878906 300.910156 628.164062 300.480469 C 628.453125 300.050781 628.777344 299.652344 629.144531 299.289062 C 629.507812 298.921875 629.90625 298.597656 630.335938 298.3125 C 630.765625 298.023438 631.21875 297.78125 631.695312 297.582031 C 632.171875 297.386719 632.664062 297.238281 633.171875 297.136719 C 633.679688 297.035156 634.1875 296.984375 634.707031 296.984375 C 635.222656 296.984375 635.734375 297.035156 636.242188 297.136719 C 636.746094 297.238281 637.238281 297.386719 637.714844 297.582031 C 638.191406 297.78125 638.644531 298.023438 639.074219 298.3125 C 639.503906 298.597656 639.902344 298.921875 640.269531 299.289062 C 640.632812 299.652344 640.960938 300.050781 641.246094 300.480469 C 641.53125 300.910156 641.773438 301.363281 641.972656 301.839844 C 642.171875 302.316406 642.320312 302.808594 642.421875 303.316406 C 642.519531 303.824219 642.570312 304.335938 642.570312 304.851562 Z M 642.570312 304.851562 " fill-opacity="1" fill-rule="nonzero"/><path fill="#67595e" d="M 602.695312 433.082031 C 602.695312 434.253906 602.640625 435.417969 602.523438 436.582031 C 602.410156 437.746094 602.238281 438.902344 602.011719 440.050781 C 601.78125 441.195312 601.5 442.332031 601.160156 443.449219 C 600.820312 444.570312 600.425781 445.667969 599.976562 446.75 C 599.53125 447.828125 599.03125 448.886719 598.480469 449.917969 C 597.929688 450.949219 597.328125 451.949219 596.679688 452.921875 C 596.027344 453.894531 595.332031 454.835938 594.589844 455.738281 C 593.847656 456.644531 593.0625 457.507812 592.238281 458.335938 C 591.410156 459.164062 590.542969 459.945312 589.640625 460.6875 C 588.734375 461.429688 587.796875 462.128906 586.824219 462.777344 C 585.851562 463.425781 584.851562 464.027344 583.820312 464.578125 C 582.785156 465.128906 581.730469 465.628906 580.648438 466.078125 C 579.570312 466.523438 578.46875 466.917969 577.351562 467.257812 C 576.230469 467.597656 575.097656 467.882812 573.949219 468.109375 C 572.804688 468.335938 571.648438 468.507812 570.484375 468.625 C 569.320312 468.738281 568.152344 468.796875 566.984375 468.796875 C 565.8125 468.796875 564.648438 468.738281 563.484375 468.625 C 562.320312 468.507812 561.164062 468.335938 560.015625 468.109375 C 558.867188 467.882812 557.734375 467.597656 556.617188 467.257812 C 555.496094 466.917969 554.398438 466.523438 553.316406 466.078125 C 552.234375 465.628906 551.179688 465.128906 550.148438 464.578125 C 549.117188 464.027344 548.113281 463.425781 547.140625 462.777344 C 546.171875 462.128906 545.230469 461.429688 544.328125 460.6875 C 543.421875 459.945312 542.558594 459.164062 541.730469 458.335938 C 540.902344 457.507812 540.117188 456.644531 539.378906 455.738281 C 538.636719 454.835938 537.9375 453.894531 537.289062 452.921875 C 536.640625 451.949219 536.039062 450.949219 535.488281 449.917969 C 534.9375 448.886719 534.4375 447.828125 533.988281 446.75 C 533.542969 445.667969 533.148438 444.570312 532.808594 443.449219 C 532.46875 442.332031 532.183594 441.195312 531.957031 440.050781 C 531.730469 438.902344 531.558594 437.746094 531.441406 436.582031 C 531.328125 435.417969 531.269531 434.253906 531.269531 433.082031 C 531.269531 431.914062 531.328125 430.746094 531.441406 429.582031 C 531.558594 428.417969 531.730469 427.261719 531.957031 426.113281 C 532.183594 424.96875 532.46875 423.835938 532.808594 422.714844 C 533.148438 421.597656 533.542969 420.496094 533.988281 419.414062 C 534.4375 418.335938 534.9375 417.277344 535.488281 416.246094 C 536.039062 415.214844 536.640625 414.214844 537.289062 413.242188 C 537.9375 412.269531 538.636719 411.332031 539.378906 410.425781 C 540.117188 409.523438 540.902344 408.65625 541.730469 407.828125 C 542.558594 407.003906 543.421875 406.21875 544.328125 405.476562 C 545.230469 404.734375 546.171875 404.039062 547.140625 403.386719 C 548.113281 402.738281 549.117188 402.136719 550.148438 401.585938 C 551.179688 401.035156 552.234375 400.535156 553.316406 400.089844 C 554.398438 399.640625 555.496094 399.246094 556.617188 398.90625 C 557.734375 398.566406 558.867188 398.285156 560.015625 398.054688 C 561.164062 397.828125 562.320312 397.65625 563.484375 397.542969 C 564.648438 397.425781 565.8125 397.371094 566.984375 397.371094 C 568.152344 397.371094 569.320312 397.425781 570.484375 397.542969 C 571.648438 397.65625 572.804688 397.828125 573.949219 398.054688 C 575.097656 398.285156 576.230469 398.566406 577.351562 398.90625 C 578.46875 399.246094 579.570312 399.640625 580.648438 400.089844 C 581.730469 400.535156 582.785156 401.035156 583.820312 401.585938 C 584.851562 402.136719 585.851562 402.738281 586.824219 403.386719 C 587.796875 404.039062 588.734375 404.734375 589.640625 405.476562 C 590.542969 406.21875 591.410156 407.003906 592.238281 407.828125 C 593.0625 408.65625 593.847656 409.523438 594.589844 410.425781 C 595.332031 411.332031 596.027344 412.269531 596.679688 413.242188 C 597.328125 414.214844 597.929688 415.214844 598.480469 416.246094 C 599.03125 417.277344 599.53125 418.335938 599.976562 419.414062 C 600.425781 420.496094 600.820312 421.597656 601.160156 422.714844 C 601.5 423.835938 601.78125 424.96875 602.011719 426.113281 C 602.238281 427.261719 602.410156 428.417969 602.523438 429.582031 C 602.640625 430.746094 602.695312 431.914062 602.695312 433.082031 Z M 602.695312 433.082031 " fill-opacity="1" fill-rule="nonzero"/><path fill="#67595e" d="M 566.28125 448.914062 L 541.6875 424.320312 C 539.929688 422.5625 539.929688 419.707031 541.6875 417.949219 C 543.449219 416.191406 546.300781 416.1875 548.058594 417.949219 L 566.28125 436.171875 L 639.820312 362.636719 C 641.578125 360.878906 644.429688 360.878906 646.1875 362.636719 C 647.949219 364.398438 647.949219 367.25 646.1875 369.007812 Z M 566.28125 448.914062 " fill-opacity="1" fill-rule="nonzero"/><path fill="#67595e" d="M 471.128906 652.554688 L 406.03125 652.554688 C 393.9375 652.554688 384.136719 642.753906 384.136719 630.660156 L 384.136719 565.5625 C 384.136719 553.46875 393.9375 543.667969 406.03125 543.667969 L 471.128906 543.667969 C 483.21875 543.667969 493.023438 553.46875 493.023438 565.5625 L 493.023438 630.660156 C 493.023438 642.753906 483.21875 652.554688 471.128906 652.554688 Z M 471.128906 652.554688 " fill-opacity="1" fill-rule="nonzero"/><path fill="#67595e" d="M 435.230469 335.324219 C 435.230469 335.71875 435.191406 336.109375 435.117188 336.496094 C 435.039062 336.882812 434.925781 337.257812 434.773438 337.621094 C 434.625 337.988281 434.4375 338.332031 434.21875 338.660156 C 434 338.988281 433.75 339.292969 433.472656 339.570312 C 433.195312 339.847656 432.890625 340.097656 432.5625 340.316406 C 432.234375 340.535156 431.890625 340.722656 431.523438 340.871094 C 431.160156 341.023438 430.785156 341.136719 430.398438 341.214844 C 430.011719 341.292969 429.621094 341.328125 429.226562 341.328125 C 428.832031 341.328125 428.441406 341.292969 428.054688 341.214844 C 427.667969 341.136719 427.292969 341.023438 426.929688 340.871094 C 426.5625 340.722656 426.21875 340.535156 425.890625 340.316406 C 425.5625 340.097656 425.257812 339.847656 424.980469 339.570312 C 424.703125 339.292969 424.453125 338.988281 424.234375 338.660156 C 424.015625 338.332031 423.828125 337.988281 423.679688 337.621094 C 423.527344 337.257812 423.414062 336.882812 423.335938 336.496094 C 423.257812 336.109375 423.222656 335.71875 423.222656 335.324219 C 423.222656 334.929688 423.257812 334.539062 423.335938 334.152344 C 423.414062 333.765625 423.527344 333.390625 423.679688 333.027344 C 423.828125 332.660156 424.015625 332.316406 424.234375 331.988281 C 424.453125 331.660156 424.703125 331.355469 424.980469 331.078125 C 425.257812 330.800781 425.5625 330.550781 425.890625 330.332031 C 426.21875 330.113281 426.5625 329.925781 426.929688 329.777344 C 427.292969 329.625 427.667969 329.511719 428.054688 329.433594 C 428.441406 329.359375 428.832031 329.320312 429.226562 329.320312 C 429.621094 329.320312 430.011719 329.359375 430.398438 329.433594 C 430.785156 329.511719 431.160156 329.625 431.523438 329.777344 C 431.890625 329.925781 432.234375 330.113281 432.5625 330.332031 C 432.890625 330.550781 433.195312 330.800781 433.472656 331.078125 C 433.75 331.355469 434 331.660156 434.21875 331.988281 C 434.4375 332.316406 434.625 332.660156 434.773438 333.027344 C 434.925781 333.390625 435.039062 333.765625 435.117188 334.152344 C 435.191406 334.539062 435.230469 334.929688 435.230469 335.324219 Z M 435.230469 335.324219 " fill-opacity="1" fill-rule="nonzero"/><path fill="#67595e" d="M 446.359375 324.769531 C 446.65625 323.175781 446.832031 321.535156 446.832031 319.855469 C 446.832031 305.191406 434.941406 293.304688 420.277344 293.304688 C 413.34375 293.304688 407.050781 295.984375 402.324219 300.335938 L 402.289062 300.328125 C 387.851562 296.714844 380.726562 318.183594 392.144531 325.574219 C 392.859375 324.769531 393.4375 323.949219 393.945312 323.128906 C 395.5625 336.246094 406.722656 346.410156 420.277344 346.410156 C 422.890625 346.410156 425.414062 346.015625 427.800781 345.3125 C 433.539062 347.84375 440.917969 346.226562 444.957031 341.390625 C 448.757812 336.84375 449.230469 329.902344 446.359375 324.769531 Z M 446.359375 324.769531 " fill-opacity="1" fill-rule="nonzero"/><path fill="#f5b7af" d="M 327.527344 393.820312 C 328.472656 394.492188 329.382812 395.199219 330.253906 395.933594 C 331.125 396.671875 331.945312 397.429688 332.710938 398.203125 C 333.476562 398.976562 334.171875 399.75 334.800781 400.53125 C 335.433594 401.308594 335.980469 402.078125 336.449219 402.832031 C 336.917969 403.589844 337.300781 404.316406 337.589844 405.019531 C 337.882812 405.722656 338.078125 406.386719 338.179688 407.007812 C 338.28125 407.632812 338.285156 408.203125 338.195312 408.722656 C 338.101562 409.242188 337.914062 409.699219 337.632812 410.09375 C 337.351562 410.488281 336.980469 410.816406 336.519531 411.070312 C 336.058594 411.328125 335.519531 411.511719 334.898438 411.617188 C 334.273438 411.726562 333.585938 411.757812 332.824219 411.710938 C 332.066406 411.667969 331.253906 411.546875 330.386719 411.347656 C 329.515625 411.152344 328.613281 410.882812 327.671875 410.542969 C 326.726562 410.203125 325.765625 409.800781 324.785156 409.328125 C 323.804688 408.859375 322.824219 408.332031 321.839844 407.746094 C 320.859375 407.164062 319.894531 406.535156 318.949219 405.863281 C 318.003906 405.191406 317.097656 404.484375 316.222656 403.746094 C 315.351562 403.007812 314.53125 402.253906 313.765625 401.480469 C 313.003906 400.707031 312.304688 399.929688 311.675781 399.152344 C 311.046875 398.371094 310.496094 397.605469 310.027344 396.847656 C 309.558594 396.09375 309.179688 395.363281 308.886719 394.660156 C 308.597656 393.960938 308.398438 393.296875 308.296875 392.671875 C 308.195312 392.050781 308.191406 391.480469 308.285156 390.960938 C 308.375 390.441406 308.5625 389.984375 308.84375 389.589844 C 309.125 389.191406 309.496094 388.867188 309.957031 388.609375 C 310.417969 388.355469 310.960938 388.171875 311.582031 388.0625 C 312.203125 387.957031 312.894531 387.925781 313.652344 387.96875 C 314.410156 388.015625 315.226562 388.136719 316.09375 388.332031 C 316.960938 388.53125 317.867188 388.796875 318.808594 389.136719 C 319.75 389.476562 320.710938 389.882812 321.691406 390.355469 C 322.671875 390.824219 323.65625 391.351562 324.636719 391.933594 C 325.621094 392.519531 326.582031 393.144531 327.527344 393.820312 Z M 327.527344 393.820312 " fill-opacity="1" fill-rule="nonzero"/><path fill="#f5b7af" d="M 315.015625 393.882812 C 314.289062 392.226562 315.035156 390.890625 316.6875 390.890625 C 316.714844 390.890625 316.75 390.890625 316.78125 390.898438 C 316.78125 391.242188 316.871094 391.625 317.050781 392.023438 C 317.773438 393.648438 319.640625 394.96875 321.265625 395.003906 C 321.3125 396.101562 320.578125 396.871094 319.335938 396.871094 C 317.679688 396.871094 315.75 395.535156 315.015625 393.882812 Z M 315.015625 393.882812 " fill-opacity="1" fill-rule="nonzero"/><path fill="#67595e" d="M 342.566406 401.042969 L 299.785156 401.042969 C 296.859375 401.042969 293.433594 398.667969 292.140625 395.742188 L 264.691406 333.738281 C 263.394531 330.8125 264.71875 328.4375 267.644531 328.4375 L 310.429688 328.4375 C 313.355469 328.4375 316.777344 330.8125 318.074219 333.738281 L 345.523438 395.742188 C 346.816406 398.667969 345.496094 401.042969 342.566406 401.042969 Z M 342.566406 401.042969 " fill-opacity="1" fill-rule="nonzero"/><path fill="#67595e" d="M 298.964844 399.183594 C 297.066406 399.183594 294.835938 397.640625 293.996094 395.742188 L 266.550781 333.738281 C 265.710938 331.839844 266.570312 330.296875 268.46875 330.296875 L 311.25 330.296875 C 313.148438 330.296875 315.375 331.839844 316.214844 333.738281 L 343.664062 395.742188 C 344.503906 397.640625 343.644531 399.183594 341.746094 399.183594 Z M 298.964844 399.183594 " fill-opacity="1" fill-rule="nonzero"/><path fill="#67595e" d="M 319.511719 392.011719 C 319.894531 392.320312 320.226562 392.664062 320.507812 393.042969 C 320.785156 393.425781 320.992188 393.8125 321.121094 394.207031 C 321.253906 394.601562 321.300781 394.972656 321.265625 395.320312 C 321.226562 395.664062 321.109375 395.964844 320.910156 396.210938 C 320.710938 396.460938 320.445312 396.640625 320.113281 396.75 C 319.785156 396.863281 319.410156 396.894531 319 396.851562 C 318.585938 396.808594 318.164062 396.691406 317.730469 396.5 C 317.300781 396.3125 316.890625 396.0625 316.503906 395.753906 C 316.121094 395.441406 315.789062 395.097656 315.507812 394.71875 C 315.230469 394.335938 315.023438 393.949219 314.894531 393.554688 C 314.761719 393.160156 314.714844 392.789062 314.75 392.445312 C 314.789062 392.097656 314.90625 391.796875 315.105469 391.550781 C 315.304688 391.300781 315.570312 391.121094 315.902344 391.011719 C 316.230469 390.902344 316.605469 390.867188 317.015625 390.910156 C 317.429688 390.953125 317.851562 391.070312 318.285156 391.261719 C 318.714844 391.449219 319.125 391.699219 319.511719 392.011719 Z M 319.511719 392.011719 " fill-opacity="1" fill-rule="nonzero"/><path fill="#67595e" d="M 344.601562 399.183594 L 301.820312 399.183594 C 298.890625 399.183594 295.46875 396.8125 294.171875 393.882812 L 266.726562 331.878906 C 265.429688 328.953125 266.75 326.578125 269.679688 326.578125 L 312.460938 326.578125 C 315.386719 326.578125 318.8125 328.953125 320.109375 331.878906 L 347.554688 393.882812 C 348.851562 396.8125 347.527344 399.183594 344.601562 399.183594 Z M 344.601562 399.183594 " fill-opacity="1" fill-rule="nonzero"/><path fill="#edd5d2" d="M 300.996094 397.328125 C 299.097656 397.328125 296.871094 395.78125 296.03125 393.882812 L 268.582031 331.878906 C 267.742188 329.980469 268.601562 328.4375 270.5 328.4375 L 313.285156 328.4375 C 315.183594 328.4375 317.410156 329.980469 318.25 331.878906 L 345.695312 393.882812 C 346.539062 395.78125 345.675781 397.328125 343.777344 397.328125 Z M 300.996094 397.328125 " fill-opacity="1" fill-rule="nonzero"/><path fill="#67595e" d="M 321.542969 390.152344 C 321.925781 390.460938 322.257812 390.804688 322.539062 391.1875 C 322.816406 391.566406 323.023438 391.953125 323.15625 392.347656 C 323.285156 392.742188 323.332031 393.113281 323.296875 393.460938 C 323.261719 393.808594 323.140625 394.105469 322.941406 394.351562 C 322.742188 394.601562 322.476562 394.78125 322.148438 394.890625 C 321.816406 395.003906 321.441406 395.035156 321.03125 394.992188 C 320.617188 394.949219 320.195312 394.832031 319.761719 394.644531 C 319.332031 394.453125 318.921875 394.203125 318.539062 393.894531 C 318.152344 393.585938 317.820312 393.238281 317.539062 392.859375 C 317.261719 392.480469 317.054688 392.089844 316.925781 391.699219 C 316.792969 391.304688 316.746094 390.933594 316.78125 390.585938 C 316.820312 390.238281 316.9375 389.941406 317.136719 389.691406 C 317.335938 389.445312 317.601562 389.265625 317.933594 389.152344 C 318.261719 389.042969 318.636719 389.007812 319.050781 389.050781 C 319.460938 389.09375 319.882812 389.210938 320.316406 389.402344 C 320.75 389.59375 321.15625 389.84375 321.542969 390.152344 Z M 321.542969 390.152344 " fill-opacity="1" fill-rule="nonzero"/><path fill="#67595e" d="M 265.070312 329.355469 C 265.070312 329.355469 266.40625 327.601562 267.972656 326.914062 L 266.988281 330.683594 L 264.976562 330.683594 Z M 265.070312 329.355469 " fill-opacity="1" fill-rule="nonzero"/><path fill="#f5b7af" d="M 428.617188 447.65625 L 478.703125 447.65625 L 478.703125 479.097656 L 428.617188 479.097656 Z M 428.617188 447.65625 " fill-opacity="1" fill-rule="nonzero"/><g clip-path="url(#28e640fb4e)"><path fill="#67595e" d="M 266.210938 647.308594 L 167.449219 647.308594 C 167.421875 647.335938 167.382812 647.363281 167.351562 647.390625 L 166.175781 648.421875 C 163.332031 650.914062 163.777344 654.527344 166.914062 654.527344 L 259.277344 654.527344 C 261.261719 654.527344 263.296875 653.800781 265.101562 652.648438 C 265.738281 653.734375 266.878906 654.527344 268.335938 654.527344 L 360.699219 654.527344 C 364.972656 654.527344 368.308594 651.257812 368.726562 647.308594 Z M 266.210938 647.308594 " fill-opacity="1" fill-rule="nonzero"/></g><path fill="#f5b7af" d="M 428.6875 332.4375 L 432.894531 328.429688 C 434.582031 326.820312 435.539062 324.59375 435.539062 322.261719 L 435.539062 322.242188 C 435.539062 317.71875 431.707031 313.976562 427.207031 314.421875 C 424.136719 314.726562 421.539062 316.730469 420.445312 319.5625 L 418.121094 325.574219 C 417.519531 327.136719 415.347656 327.199219 414.628906 325.691406 C 413.648438 323.625 413.214844 321.34375 413.367188 319.066406 C 413.695312 314.234375 410.316406 309.9375 405.546875 309.113281 L 403.960938 308.839844 C 400.558594 308.25 397.136719 309.945312 395.613281 313.042969 C 393.132812 318.089844 392.027344 323.085938 392.054688 328.050781 C 392.058594 329.214844 391.757812 330.363281 391.199219 331.382812 L 389.292969 334.875 C 388.5 336.332031 389.554688 338.109375 391.210938 338.109375 L 392.25 338.109375 C 393.046875 338.109375 393.734375 338.625 393.988281 339.382812 C 394.613281 341.277344 395.382812 343.164062 396.28125 345.054688 C 398.996094 350.75 405.199219 353.921875 411.429688 352.921875 L 415.628906 352.246094 C 418.167969 351.839844 420.667969 353.1875 421.71875 355.539062 L 426.09375 365.328125 L 451.53125 354.632812 C 439.519531 351.3125 430.226562 345.46875 428.6875 332.4375 Z M 428.6875 332.4375 " fill-opacity="1" fill-rule="nonzero"/><path fill="#67595e" d="M 422.890625 358.96875 L 425.152344 357.222656 C 432.910156 351.234375 443.363281 350.070312 452.25 354.214844 C 459.816406 357.738281 465.574219 364.257812 468.136719 372.203125 L 489.785156 439.269531 C 493.085938 449.503906 486.570312 460.292969 475.972656 462.132812 L 442.25 467.980469 C 426.511719 470.710938 410.859375 462.730469 403.828125 448.386719 Z M 422.890625 358.96875 " fill-opacity="1" fill-rule="nonzero"/><path fill="#f5b7af" d="M 409.664062 403.066406 L 406.398438 401.921875 L 390.863281 420.226562 L 346.972656 400.863281 C 345.945312 400.410156 345.285156 399.429688 345.285156 398.386719 C 345.285156 396.632812 344.882812 394.925781 344.160156 393.367188 C 343.4375 391.789062 342.359375 390.359375 340.992188 389.167969 L 321.597656 372.203125 C 320.777344 371.480469 319.441406 371.71875 318.957031 372.667969 C 318.554688 373.472656 318.363281 374.339844 318.363281 375.195312 C 318.363281 376.238281 318.652344 377.285156 319.230469 378.21875 L 327.242188 390.953125 C 328.496094 392.917969 328.480469 395.378906 327.226562 397.339844 C 326.5 398.496094 326.035156 399.75 325.859375 401.039062 L 313.347656 401.039062 C 314.921875 402.695312 316.804688 404.335938 318.957031 405.863281 C 322.851562 408.644531 326.839844 410.511719 330.183594 411.300781 C 330.890625 412.039062 331.617188 412.746094 332.417969 413.40625 L 348.550781 426.753906 C 349.082031 426.675781 349.613281 426.625 350.125 426.5625 C 340.894531 427.703125 331.984375 430.726562 323.992188 435.550781 L 311.109375 443.304688 L 382.597656 454.191406 C 392.472656 455.703125 402.378906 451.601562 408.3125 443.5625 L 409.664062 441.726562 L 432.292969 410.992188 Z M 409.664062 403.066406 " fill-opacity="1" fill-rule="nonzero"/><path fill="#67595e" d="M 442.910156 423.109375 C 441.890625 422.765625 392.789062 401.925781 392.789062 401.925781 L 412.554688 370.230469 C 418.332031 360.96875 428.085938 354.917969 438.949219 353.863281 C 449.191406 352.871094 458.871094 358.714844 462.757812 368.242188 C 465.304688 374.492188 464.953125 381.546875 461.789062 387.507812 Z M 442.910156 423.109375 " fill-opacity="1" fill-rule="nonzero"/><path fill="#e7a1a7" d="M 483.066406 485.003906 L 478.351562 469.261719 L 418.027344 467.28125 C 391.3125 457.039062 366.917969 449.300781 346.234375 445.570312 C 325.261719 441.777344 308.085938 442.097656 296.136719 448.046875 L 290.507812 451.488281 C 286.488281 453.949219 283.015625 456.796875 280.152344 459.933594 C 269.828125 462.761719 261.832031 469.164062 258.777344 477.125 L 232 548.949219 L 232.015625 548.949219 C 231.371094 550.929688 231.019531 552.988281 231.019531 555.109375 C 231.019531 569.4375 246.585938 581.050781 265.773438 581.050781 C 276.402344 581.050781 285.910156 577.496094 292.292969 571.882812 C 292.230469 571.835938 292.195312 571.769531 292.148438 571.722656 C 293.386719 572.976562 294.691406 574.199219 296.136719 575.339844 C 298.195312 576.964844 300.640625 578.238281 303.308594 579.105469 C 305.980469 579.972656 308.859375 580.421875 311.816406 580.421875 C 319.632812 580.421875 327.226562 578.945312 333.964844 576.242188 C 338.484375 574.425781 342.632812 572.0625 346.234375 569.214844 C 348.003906 567.816406 349.628906 566.289062 351.109375 564.664062 C 354.644531 560.785156 355.964844 555.960938 354.804688 551.296875 L 348.101562 524.632812 C 347.214844 521.128906 352.152344 518.488281 356.078125 520.371094 L 390.589844 536.757812 L 407.765625 542.097656 L 421.164062 546.265625 C 425.972656 547.742188 430.894531 548.46875 435.796875 548.46875 C 445.929688 548.46875 455.964844 545.347656 464.425781 539.316406 C 474.894531 531.871094 481.761719 520.855469 484.175781 508.824219 C 485.71875 501.070312 485.429688 492.917969 483.066406 485.003906 Z M 483.066406 485.003906 " fill-opacity="1" fill-rule="nonzero"/><g clip-path="url(#4f4a200d0d)"><g mask="url(#531ff8d718)"><g transform="matrix(1, 0, 0, 1, 163, 353)"><g clip-path="url(#20340ad31b)"><g clip-path="url(#66b7ad03f0)"><path fill="#67595e" d="M 124.796875 213.289062 C 122.671875 209.960938 121.210938 206.394531 120.515625 202.679688 L 107.976562 136.46875 C 105.976562 125.933594 109.394531 115.390625 117.144531 106.925781 C 106.832031 109.769531 98.824219 116.167969 95.777344 124.128906 L 95.769531 124.128906 L 68.996094 195.945312 L 69.015625 195.945312 C 68.375 197.925781 68.023438 199.976562 68.023438 202.105469 C 68.023438 209.507812 72.183594 216.175781 78.835938 220.90625 C 78.734375 220.832031 78.628906 220.765625 78.527344 220.691406 L 73.585938 250.015625 L 73.335938 251.496094 L 73.101562 252.824219 C 71.710938 261.097656 63.648438 269.238281 54.691406 271.402344 L 41.484375 274.597656 C 29.507812 277.496094 17.507812 283.625 7.039062 292.132812 C 6.863281 292.273438 6.6875 292.414062 6.519531 292.550781 C 6.164062 292.839844 5.832031 293.136719 5.488281 293.433594 C 5.144531 293.722656 4.789062 294.011719 4.445312 294.308594 C 4.417969 294.335938 4.382812 294.363281 4.355469 294.390625 L 3.175781 295.421875 C 3.035156 295.542969 2.90625 295.671875 2.773438 295.804688 C 1.773438 296.84375 1.289062 298.015625 1.289062 299.035156 C 1.28125 300.429688 2.191406 301.527344 3.917969 301.527344 L 96.28125 301.527344 C 96.28125 301.527344 96.28125 301.527344 96.289062 301.527344 C 96.585938 301.527344 96.894531 301.507812 97.191406 301.46875 C 97.292969 301.460938 97.394531 301.441406 97.496094 301.433594 C 97.699219 301.40625 97.90625 301.367188 98.109375 301.332031 C 98.230469 301.304688 98.34375 301.273438 98.453125 301.246094 C 98.65625 301.199219 98.851562 301.144531 99.046875 301.089844 C 99.160156 301.050781 99.269531 301.023438 99.375 300.988281 C 99.613281 300.902344 99.855469 300.820312 100.089844 300.71875 C 100.144531 300.691406 100.210938 300.671875 100.273438 300.652344 C 100.554688 300.523438 100.839844 300.394531 101.121094 300.242188 C 101.222656 300.1875 101.332031 300.125 101.433594 300.066406 C 101.613281 299.964844 101.789062 299.863281 101.964844 299.761719 C 102.074219 299.6875 102.195312 299.613281 102.308594 299.539062 C 102.476562 299.425781 102.632812 299.316406 102.792969 299.203125 C 102.902344 299.121094 103.003906 299.046875 103.117188 298.960938 C 103.292969 298.824219 103.46875 298.675781 103.644531 298.535156 C 103.71875 298.46875 103.792969 298.40625 103.878906 298.339844 C 104.109375 298.125 104.34375 297.914062 104.554688 297.679688 C 104.640625 297.605469 104.714844 297.523438 104.796875 297.4375 C 104.9375 297.28125 105.085938 297.121094 105.226562 296.957031 C 105.308594 296.863281 105.382812 296.761719 105.464844 296.667969 C 105.597656 296.5 105.71875 296.332031 105.847656 296.167969 C 105.914062 296.074219 105.976562 295.980469 106.042969 295.886719 C 106.191406 295.683594 106.320312 295.46875 106.453125 295.246094 C 106.488281 295.199219 106.515625 295.144531 106.554688 295.089844 C 106.703125 294.828125 106.839844 294.566406 106.960938 294.308594 C 106.972656 294.289062 106.980469 294.261719 106.988281 294.242188 C 107.019531 294.1875 107.035156 294.132812 107.066406 294.074219 C 107.15625 293.863281 107.242188 293.648438 107.324219 293.433594 C 107.363281 293.3125 107.398438 293.195312 107.4375 293.082031 C 107.492188 292.90625 107.539062 292.738281 107.585938 292.570312 C 107.613281 292.449219 107.648438 292.328125 107.667969 292.21875 C 107.714844 292.003906 107.75 291.789062 107.78125 291.578125 C 107.78125 291.503906 107.796875 291.4375 107.808594 291.371094 L 111.894531 250.015625 L 114.199219 226.628906 C 114.03125 226.675781 113.855469 226.703125 113.6875 226.738281 C 119.820312 225.226562 125.195312 222.476562 129.285156 218.878906 C 127.566406 217.125 126.0625 215.25 124.796875 213.289062 Z M 124.796875 213.289062 " fill-opacity="1" fill-rule="nonzero"/></g><path fill="#67595e" d="M 182.277344 45.378906 C 182.277344 43.628906 181.886719 41.929688 181.164062 40.359375 C 180.429688 38.792969 179.363281 37.359375 177.996094 36.171875 L 158.589844 19.199219 C 157.773438 18.484375 156.4375 18.726562 155.960938 19.675781 C 155.5625 20.472656 155.359375 21.335938 155.359375 22.199219 C 155.359375 23.242188 155.65625 24.28125 156.230469 25.210938 L 164.25 37.957031 C 165.492188 39.925781 165.484375 42.375 164.230469 44.347656 C 163.496094 45.496094 163.042969 46.757812 162.851562 48.042969 L 150.34375 48.042969 C 151.921875 49.695312 153.808594 51.339844 155.953125 52.863281 C 159.847656 55.644531 163.84375 57.507812 167.1875 58.304688 C 167.886719 59.042969 168.617188 59.753906 169.414062 60.40625 L 185.558594 73.753906 C 187.898438 73.402344 190.265625 73.179688 192.644531 73.085938 L 218.03125 72.113281 C 218.71875 72.082031 219.40625 72 220.078125 71.878906 C 220.09375 71.871094 220.113281 71.871094 220.132812 71.859375 C 223.078125 71.277344 225.761719 69.714844 227.730469 67.390625 L 227.871094 67.226562 L 183.96875 47.867188 C 182.9375 47.410156 182.277344 46.4375 182.277344 45.378906 Z M 182.277344 45.378906 " fill-opacity="1" fill-rule="nonzero"/><g clip-path="url(#0772f1b5e5)"><path fill="#67595e" d="M 299.757812 15.242188 C 295.871094 5.714844 286.191406 -0.128906 275.949219 0.863281 C 265.085938 1.917969 255.332031 7.96875 249.554688 17.230469 L 229.789062 48.925781 C 229.789062 48.925781 278.890625 69.765625 279.910156 70.109375 L 298.789062 34.507812 C 301.953125 28.546875 302.304688 21.492188 299.757812 15.242188 Z M 299.757812 15.242188 " fill-opacity="1" fill-rule="nonzero"/></g></g></g></g></g></svg>